Newsreader-CaptionExtraLightItalic.ufo
<glyph name="exclam" format="2">
  <advance width="586"/>
  <unicode hex="0021"/>
  <outline>
    <contour>
      <point x="606.0" y="1414.0" type="line" smooth="yes"/>
      <point x="610.0" y="1428.0"/>
      <point x="594.0" y="1434.0"/>
      <point x="564.0" y="1434.0" type="curve" smooth="yes"/>
      <point x="537.0" y="1434.0"/>
      <point x="521.0" y="1428.0"/>
      <point x="517.0" y="1414.0" type="curve" smooth="yes"/>
      <point x="496.0" y="1347.0" type="line"/>
      <point x="457.67192429022083" y="1212.0"/>
      <point x="325.93690851735016" y="748.0"/>
      <point x="226.0" y="396.0" type="curve"/>
      <point x="275.0" y="396.0" type="line"/>
      <point x="390.112513144059" y="748.0"/>
      <point x="541.8517350157729" y="1212.0"/>
      <point x="586.0" y="1347.0" type="curve"/>
    </contour>
    <contour>
      <point x="190.0" y="184.0" type="curve" smooth="yes"/>
      <point x="104.0" y="184.0"/>
      <point x="63.0" y="123.0"/>
      <point x="63.0" y="57.0" type="curve" smooth="yes"/>
      <point x="63.0" y="10.0"/>
      <point x="92.0" y="-14.0"/>
      <point x="141.0" y="-14.0" type="curve" smooth="yes"/>
      <point x="227.0" y="-14.0"/>
      <point x="268.0" y="47.0"/>
      <point x="268.0" y="113.0" type="curve" smooth="yes"/>
      <point x="268.0" y="160.0"/>
      <point x="239.0" y="184.0"/>
    </contour>
  </outline>
</glyph>
<glyph name="quotesingle" format="2">
  <advance width="380"/>
  <unicode hex="0027"/>
  <outline>
    <contour>
      <point x="305.0" y="990.0" type="line"/>
      <point x="354.0" y="990.0" type="line"/>
      <point x="498.0" y="1394.0" type="line"/>
      <point x="504.0" y="1414.0" type="line"/>
      <point x="415.0" y="1414.0" type="line"/>
      <point x="409.0" y="1394.0" type="line"/>
    </contour>
  </outline>
</glyph>
<glyph name="asterisk" format="2">
  <advance width="856"/>
  <unicode hex="002A"/>
  <outline>
    <contour>
      <point x="732.0" y="818.0" type="line"/>
      <point x="643.0" y="1076.0" type="line"/>
      <point x="915.0" y="1093.0" type="line"/>
      <point x="913.0" y="1139.0" type="line"/>
      <point x="640.0" y="1134.0" type="line"/>
      <point x="708.0" y="1397.0" type="line"/>
      <point x="663.0" y="1410.0" type="line"/>
      <point x="585.0" y="1149.0" type="line"/>
      <point x="354.0" y="1294.0" type="line"/>
      <point x="329.0" y="1257.0" type="line"/>
      <point x="553.0" y="1101.0" type="line"/>
      <point x="343.0" y="927.0" type="line"/>
      <point x="371.0" y="891.0" type="line"/>
      <point x="588.0" y="1055.0" type="line"/>
      <point x="689.0" y="802.0" type="line"/>
    </contour>
  </outline>
</glyph>
<glyph name="hyphen" format="2">
  <advance width="661"/>
  <unicode hex="002D"/>
  <outline>
    <contour>
      <point x="135.0" y="560.0" type="line"/>
      <point x="112.0" y="484.0" type="line"/>
      <point x="531.0" y="484.0" type="line"/>
      <point x="554.0" y="560.0" type="line"/>
    </contour>
  </outline>
</glyph>
<glyph name="zero" format="2">
  <advance width="1300"/>
  <unicode hex="0030"/>
  <outline>
    <contour>
      <point x="219.5" y="392.0" type="curve" smooth="yes"/>
      <point x="219.5" y="807.0"/>
      <point x="478.5" y="1375.0"/>
      <point x="897.5" y="1375.0" type="curve" smooth="yes"/>
      <point x="1102.5" y="1375.0"/>
      <point x="1199.5" y="1241.0"/>
      <point x="1199.5" y="1022.0" type="curve" smooth="yes"/>
      <point x="1199.5" y="607.0"/>
      <point x="940.5" y="39.0"/>
      <point x="521.5" y="39.0" type="curve" smooth="yes"/>
      <point x="316.5" y="39.0"/>
      <point x="219.5" y="173.0"/>
    </contour>
    <contour>
      <point x="899.5" y="1434.0" type="curve" smooth="yes"/>
      <point x="435.5" y="1434.0"/>
      <point x="140.5" y="861.0"/>
      <point x="140.5" y="387.0" type="curve" smooth="yes"/>
      <point x="140.5" y="138.0"/>
      <point x="256.5" y="-20.0"/>
      <point x="519.5" y="-20.0" type="curve" smooth="yes"/>
      <point x="983.5" y="-20.0"/>
      <point x="1278.5" y="553.0"/>
      <point x="1278.5" y="1027.0" type="curve" smooth="yes"/>
      <point x="1278.5" y="1276.0"/>
      <point x="1162.5" y="1434.0"/>
    </contour>
  </outline>
</glyph>
<glyph name="question" format="2">
  <advance width="1031"/>
  <unicode hex="003F"/>
  <outline>
    <contour>
      <point x="376.0" y="184.0" type="curve" smooth="yes"/>
      <point x="290.0" y="184.0"/>
      <point x="249.0" y="123.0"/>
      <point x="249.0" y="57.0" type="curve" smooth="yes"/>
      <point x="249.0" y="10.0"/>
      <point x="278.0" y="-14.0"/>
      <point x="327.0" y="-14.0" type="curve" smooth="yes"/>
      <point x="413.0" y="-14.0"/>
      <point x="454.0" y="47.0"/>
      <point x="454.0" y="113.0" type="curve" smooth="yes"/>
      <point x="454.0" y="160.0"/>
      <point x="425.0" y="184.0"/>
    </contour>
    <contour>
      <point x="560.0" y="1434.0" type="curve" smooth="yes"/>
      <point x="366.0" y="1434.0"/>
      <point x="309.0" y="1372.0"/>
      <point x="309.0" y="1321.0" type="curve" smooth="yes"/>
      <point x="309.0" y="1289.0"/>
      <point x="335.0" y="1270.0"/>
      <point x="372.0" y="1270.0" type="curve" smooth="yes"/>
      <point x="411.0" y="1270.0"/>
      <point x="451.0" y="1383.0"/>
      <point x="635.0" y="1383.0" type="curve" smooth="yes"/>
      <point x="876.0" y="1383.0"/>
      <point x="977.0" y="1211.0"/>
      <point x="977.0" y="1041.0" type="curve" smooth="yes"/>
      <point x="977.0" y="837.0"/>
      <point x="828.0" y="732.0"/>
      <point x="490.0" y="763.0" type="curve"/>
      <point x="410.0" y="396.0" type="line"/>
      <point x="449.0" y="396.0" type="line"/>
      <point x="547.0" y="734.0" type="line"/>
      <point x="495.0" y="688.0" type="line"/>
      <point x="878.0" y="649.0"/>
      <point x="1038.0" y="795.0"/>
      <point x="1038.0" y="1022.0" type="curve" smooth="yes"/>
      <point x="1038.0" y="1217.0"/>
      <point x="915.0" y="1434.0"/>
    </contour>
  </outline>
</glyph>
<glyph name="at" format="2">
  <advance width="1953"/>
  <unicode hex="0040"/>
  <outline>
    <contour>
      <point x="1397.0" y="267.0" type="curve" smooth="yes"/>
      <point x="1304.0" y="267.0"/>
      <point x="1244.0" y="298.0"/>
      <point x="1244.0" y="377.0" type="curve" smooth="yes"/>
      <point x="1244.0" y="408.0"/>
      <point x="1251.0" y="445.0"/>
      <point x="1266.0" y="490.0" type="curve" smooth="yes"/>
      <point x="1431.0" y="999.0" type="line"/>
      <point x="1359.0" y="999.0" type="line"/>
      <point x="1318.0" y="873.0" type="line"/>
      <point x="1275.0" y="740.0" type="line" smooth="yes"/>
      <point x="1195.0" y="495.0"/>
      <point x="995.0" y="271.0"/>
      <point x="833.0" y="271.0" type="curve" smooth="yes"/>
      <point x="723.0" y="271.0"/>
      <point x="678.0" y="317.0"/>
      <point x="678.0" y="420.0" type="curve" smooth="yes"/>
      <point x="678.0" y="630.0"/>
      <point x="872.0" y="958.0"/>
      <point x="1110.0" y="958.0" type="curve" smooth="yes"/>
      <point x="1206.0" y="958.0"/>
      <point x="1282.0" y="915.0"/>
      <point x="1332.0" y="829.0" type="curve"/>
      <point x="1345.0" y="855.0" type="line"/>
      <point x="1298.0" y="950.0"/>
      <point x="1229.0" y="1015.0"/>
      <point x="1111.0" y="1015.0" type="curve" smooth="yes"/>
      <point x="809.0" y="1015.0"/>
      <point x="597.0" y="646.0"/>
      <point x="597.0" y="411.0" type="curve" smooth="yes"/>
      <point x="597.0" y="291.0"/>
      <point x="666.0" y="212.0"/>
      <point x="812.0" y="212.0" type="curve" smooth="yes"/>
      <point x="941.0" y="212.0"/>
      <point x="1065.0" y="297.0"/>
      <point x="1229.0" y="549.0" type="curve"/>
      <point x="1236.0" y="549.0" type="line"/>
      <point x="1215.0" y="490.0" type="line" smooth="yes"/>
      <point x="1198.0" y="441.0"/>
      <point x="1189.0" y="391.0"/>
      <point x="1189.0" y="355.0" type="curve" smooth="yes"/>
      <point x="1189.0" y="257.0"/>
      <point x="1266.0" y="212.0"/>
      <point x="1388.0" y="212.0" type="curve" smooth="yes"/>
      <point x="1711.0" y="212.0"/>
      <point x="1897.0" y="518.0"/>
      <point x="1897.0" y="876.0" type="curve" smooth="yes"/>
      <point x="1897.0" y="1234.0"/>
      <point x="1632.0" y="1434.0"/>
      <point x="1212.0" y="1434.0" type="curve" smooth="yes"/>
      <point x="436.0" y="1434.0"/>
      <point x="139.0" y="910.0"/>
      <point x="139.0" y="417.0" type="curve" smooth="yes"/>
      <point x="139.0" y="-11.0"/>
      <point x="413.0" y="-242.0"/>
      <point x="836.0" y="-242.0" type="curve" smooth="yes"/>
      <point x="1108.0" y="-242.0"/>
      <point x="1347.0" y="-171.0"/>
      <point x="1525.0" y="-50.0" type="curve"/>
      <point x="1500.0" y="-8.0" type="line"/>
      <point x="1310.0" y="-126.0"/>
      <point x="1104.0" y="-186.0"/>
      <point x="847.0" y="-186.0" type="curve" smooth="yes"/>
      <point x="443.0" y="-186.0"/>
      <point x="214.0" y="50.0"/>
      <point x="214.0" y="423.0" type="curve" smooth="yes"/>
      <point x="214.0" y="863.0"/>
      <point x="473.0" y="1379.0"/>
      <point x="1207.0" y="1379.0" type="curve" smooth="yes"/>
      <point x="1573.0" y="1379.0"/>
      <point x="1828.0" y="1208.0"/>
      <point x="1828.0" y="872.0" type="curve" smooth="yes"/>
      <point x="1828.0" y="513.0"/>
      <point x="1662.0" y="267.0"/>
    </contour>
  </outline>
</glyph>
<glyph name="A" format="2">
  <advance width="1505"/>
  <unicode hex="0041"/>
  <anchor x="994.0" y="1414" name="UCtop"/>
  <anchor x="601.0" y="0" name="bottom"/>
  <anchor x="1258.0" y="0" name="right"/>
  <outline>
    <contour>
      <point x="422.0" y="522.0" type="line"/>
      <point x="1075.0" y="522.0" type="line"/>
      <point x="1095.0" y="586.0" type="line"/>
      <point x="443.0" y="586.0" type="line"/>
    </contour>
    <contour>
      <point x="1179.0" y="62.0" type="line"/>
      <point x="1060.0" y="1414.0" type="line"/>
      <point x="969.0" y="1414.0" type="line"/>
      <point x="75.0" y="63.0" type="line"/>
      <point x="-116.0" y="47.0" type="line"/>
      <point x="-130.0" y="0.0" type="line"/>
      <point x="322.0" y="0.0" type="line"/>
      <point x="337.0" y="47.0" type="line"/>
      <point x="147.0" y="62.0" type="line"/>
      <point x="1010.0" y="1372.0" type="line"/>
      <point x="990.0" y="1372.0" type="line"/>
      <point x="1102.0" y="63.0" type="line"/>
      <point x="884.0" y="47.0" type="line"/>
      <point x="869.0" y="0.0" type="line"/>
      <point x="1351.0" y="0.0" type="line"/>
      <point x="1365.0" y="47.0" type="line"/>
    </contour>
  </outline>
</glyph>
<glyph name="H" format="2">
  <advance width="1615"/>
  <unicode hex="0048"/>
  <anchor x="1053.0" y="1414" name="UCtop"/>
  <anchor x="650.0" y="0" name="bottom"/>
  <outline>
    <contour>
      <point x="394.0" y="698.0" type="line"/>
      <point x="1333.0" y="698.0" type="line"/>
      <point x="1353.0" y="762.0" type="line"/>
      <point x="415.0" y="762.0" type="line"/>
    </contour>
    <contour>
      <point x="568.0" y="1351.0" type="line"/>
      <point x="174.0" y="63.0" type="line"/>
      <point x="-41.0" y="47.0" type="line"/>
      <point x="-55.0" y="0.0" type="line"/>
      <point x="441.0" y="0.0" type="line"/>
      <point x="455.0" y="47.0" type="line"/>
      <point x="250.0" y="63.0" type="line"/>
      <point x="644.0" y="1351.0" type="line"/>
      <point x="858.0" y="1367.0" type="line"/>
      <point x="873.0" y="1414.0" type="line"/>
      <point x="377.0" y="1414.0" type="line"/>
      <point x="362.0" y="1367.0" type="line"/>
    </contour>
    <contour>
      <point x="1483.0" y="1351.0" type="line"/>
      <point x="1090.0" y="63.0" type="line"/>
      <point x="875.0" y="47.0" type="line"/>
      <point x="861.0" y="0.0" type="line"/>
      <point x="1356.0" y="0.0" type="line"/>
      <point x="1371.0" y="47.0" type="line"/>
      <point x="1166.0" y="63.0" type="line"/>
      <point x="1559.0" y="1351.0" type="line"/>
      <point x="1774.0" y="1367.0" type="line"/>
      <point x="1789.0" y="1414.0" type="line"/>
      <point x="1293.0" y="1414.0" type="line"/>
      <point x="1278.0" y="1367.0" type="line"/>
    </contour>
  </outline>
</glyph>
<glyph name="J" format="2">
  <advance width="907"/>
  <unicode hex="004A"/>
  <anchor x="840.0" y="1414" name="UCtop"/>
  <anchor x="247.0" y="0" name="bottom"/>
  <outline>
    <contour>
      <point x="567.0" y="322.0" type="curve" smooth="yes"/>
      <point x="873.0" y="1351.0" type="line"/>
      <point x="1088.0" y="1367.0" type="line"/>
      <point x="1102.0" y="1414.0" type="line"/>
      <point x="606.0" y="1414.0" type="line"/>
      <point x="592.0" y="1367.0" type="line"/>
      <point x="797.0" y="1351.0" type="line"/>
      <point x="481.0" y="315.0" type="line" smooth="yes"/>
      <point x="420.0" y="114.0"/>
      <point x="326.0" y="44.0"/>
      <point x="133.0" y="44.0" type="curve" smooth="yes"/>
      <point x="29.0" y="44.0"/>
      <point x="-7.0" y="120.0"/>
      <point x="-44.0" y="120.0" type="curve" smooth="yes"/>
      <point x="-74.0" y="120.0"/>
      <point x="-94.0" y="97.0"/>
      <point x="-94.0" y="70.0" type="curve" smooth="yes"/>
      <point x="-94.0" y="14.0"/>
      <point x="-34.0" y="-18.0"/>
      <point x="117.0" y="-18.0" type="curve" smooth="yes"/>
      <point x="357.0" y="-18.0"/>
      <point x="490.0" y="63.0"/>
    </contour>
  </outline>
</glyph>
<glyph name="P" format="2">
  <advance width="1280"/>
  <unicode hex="0050"/>
  <anchor x="937.0" y="1414" name="UCtop"/>
  <anchor x="193.0" y="0" name="bottom"/>
  <outline>
    <contour>
      <point x="1258.0" y="849.0"/>
      <point x="1116.0" y="675.0"/>
      <point x="812.0" y="675.0" type="curve" smooth="yes"/>
      <point x="403.0" y="675.0" type="line"/>
      <point x="383.0" y="611.0" type="line"/>
      <point x="826.0" y="611.0" type="line" smooth="yes"/>
      <point x="1193.0" y="611.0"/>
      <point x="1338.0" y="858.0"/>
      <point x="1338.0" y="1105.0" type="curve" smooth="yes"/>
      <point x="1338.0" y="1306.0"/>
      <point x="1220.0" y="1414.0"/>
      <point x="909.0" y="1414.0" type="curve" smooth="yes"/>
      <point x="618.0" y="1414.0" type="line"/>
      <point x="598.0" y="1350.0" type="line"/>
      <point x="877.0" y="1350.0" type="line" smooth="yes"/>
      <point x="1159.0" y="1350.0"/>
      <point x="1258.0" y="1266.0"/>
      <point x="1258.0" y="1097.0" type="curve" smooth="yes"/>
    </contour>
    <contour>
      <point x="250.0" y="63.0" type="line"/>
      <point x="663.0" y="1414.0" type="line"/>
      <point x="377.0" y="1414.0" type="line"/>
      <point x="362.0" y="1367.0" type="line"/>
      <point x="568.0" y="1351.0" type="line"/>
      <point x="174.0" y="63.0" type="line"/>
      <point x="-41.0" y="47.0" type="line"/>
      <point x="-55.0" y="0.0" type="line"/>
      <point x="441.0" y="0.0" type="line"/>
      <point x="455.0" y="47.0" type="line"/>
    </contour>
  </outline>
</glyph>
<glyph name="W" format="2">
  <advance width="2005"/>
  <unicode hex="0057"/>
  <anchor x="1233.0" y="1414" name="UCtop"/>
  <anchor x="900.0" y="0" name="bottom"/>
  <outline>
    <contour>
      <point x="1979.0" y="1352.0" type="line"/>
      <point x="1297.0" y="61.0" type="line"/>
      <point x="1312.0" y="61.0" type="line"/>
      <point x="1333.0" y="1414.0" type="line"/>
      <point x="1235.0" y="1414.0" type="line"/>
      <point x="417.0" y="61.0" type="line"/>
      <point x="434.0" y="61.0" type="line"/>
      <point x="538.0" y="1351.0" type="line"/>
      <point x="751.0" y="1367.0" type="line"/>
      <point x="766.0" y="1414.0" type="line"/>
      <point x="281.0" y="1414.0" type="line"/>
      <point x="266.0" y="1367.0" type="line"/>
      <point x="467.0" y="1352.0" type="line"/>
      <point x="353.0" y="0.0" type="line"/>
      <point x="449.0" y="0.0" type="line"/>
      <point x="1284.0" y="1378.0" type="line"/>
      <point x="1262.0" y="1378.0" type="line"/>
      <point x="1236.0" y="0.0" type="line"/>
      <point x="1332.0" y="0.0" type="line"/>
      <point x="2050.0" y="1351.0" type="line"/>
      <point x="2233.0" y="1367.0" type="line"/>
      <point x="2248.0" y="1414.0" type="line"/>
      <point x="1796.0" y="1414.0" type="line"/>
      <point x="1782.0" y="1367.0" type="line"/>
    </contour>
  </outline>
</glyph>
<glyph name="Y" format="2">
  <advance width="1430"/>
  <unicode hex="0059"/>
  <guideline x="856.0" y="609" angle="180.0" identifier="nEWnPscWpp"/>
  <anchor x="954.0" y="1414" name="UCtop"/>
  <anchor x="581.0" y="0" name="bottom"/>
  <outline>
    <contour>
      <point x="1392.0" y="1352.0" type="line"/>
      <point x="747.0" y="648.0" type="line"/>
      <point x="764.0" y="648.0" type="line"/>
      <point x="548.0" y="1351.0" type="line"/>
      <point x="763.0" y="1367.0" type="line"/>
      <point x="781.0" y="1414.0" type="line"/>
      <point x="286.0" y="1414.0" type="line"/>
      <point x="271.0" y="1367.0" type="line"/>
      <point x="472.0" y="1352.0" type="line"/>
      <point x="707.0" y="609.0" type="line"/>
      <point x="540.0" y="63.0" type="line"/>
      <point x="325.0" y="47.0" type="line"/>
      <point x="311.0" y="0.0" type="line"/>
      <point x="807.0" y="0.0" type="line"/>
      <point x="821.0" y="47.0" type="line"/>
      <point x="616.0" y="63.0" type="line"/>
      <point x="783.0" y="609.0" type="line"/>
      <point x="1467.0" y="1351.0" type="line"/>
      <point x="1651.0" y="1367.0" type="line"/>
      <point x="1665.0" y="1414.0" type="line"/>
      <point x="1214.0" y="1414.0" type="line"/>
      <point x="1196.0" y="1367.0" type="line"/>
    </contour>
  </outline>
</glyph>
<glyph name="bracketleft" format="2">
  <advance width="673"/>
  <unicode hex="005B"/>
  <outline>
    <contour>
      <point x="16.0" y="-223.0" type="line"/>
      <point x="395.0" y="-223.0" type="line"/>
      <point x="413.0" y="-165.0" type="line"/>
      <point x="106.0" y="-165.0" type="line"/>
      <point x="586.0" y="1406.0" type="line"/>
      <point x="893.0" y="1406.0" type="line"/>
      <point x="911.0" y="1464.0" type="line"/>
      <point x="532.0" y="1464.0" type="line"/>
    </contour>
  </outline>
</glyph>
<glyph name="backslash" format="2">
  <advance width="792"/>
  <unicode hex="005C"/>
  <outline>
    <contour>
      <point x="551.0" y="0.0" type="line"/>
      <point x="417.0" y="1414.0" type="line"/>
      <point x="357.0" y="1414.0" type="line"/>
      <point x="491.0" y="0.0" type="line"/>
    </contour>
  </outline>
</glyph>
<glyph name="d" format="2">
  <advance width="1260"/>
  <unicode hex="0064"/>
  <guideline x="1257.0" y="1483" angle="171.86938501641868" identifier="3275QB0AnM"/>
  <guideline x="762.0" y="1407" angle="180.0" identifier="1iuUlvZrQ4"/>
  <guideline x="752.0" y="1446" angle="180.0" identifier="bCE3u6b46F"/>
  <anchor x="924.0" y="1414" name="UCtop"/>
  <anchor x="1256.0" y="1464" name="right"/>
  <anchor x="522.0" y="0" name="bottom"/>
  <anchor x="1095.0" y="1207.0" name="center"/>
  <outline>
    <contour>
      <point x="1043.0" y="821.0" type="curve"/>
      <point x="1049.0" y="833.0" type="line"/>
      <point x="994.0" y="959.0"/>
      <point x="905.0" y="1044.0"/>
      <point x="756.0" y="1044.0" type="curve" smooth="yes"/>
      <point x="350.0" y="1044.0"/>
      <point x="55.0" y="535.0"/>
      <point x="55.0" y="225.0" type="curve" smooth="yes"/>
      <point x="55.0" y="85.0"/>
      <point x="131.0" y="-20.0"/>
      <point x="310.0" y="-20.0" type="curve" smooth="yes"/>
      <point x="482.0" y="-20.0"/>
      <point x="674.0" y="96.0"/>
      <point x="891.0" y="431.0" type="curve"/>
      <point x="900.0" y="431.0" type="line"/>
      <point x="781.0" y="79.0" type="line" smooth="yes"/>
      <point x="758.0" y="10.0"/>
      <point x="765.0" y="-20.0"/>
      <point x="823.0" y="-20.0" type="curve" smooth="yes"/>
      <point x="887.0" y="-20.0"/>
      <point x="1022.0" y="6.0"/>
      <point x="1209.0" y="122.0" type="curve"/>
      <point x="1194.0" y="154.0" type="line"/>
      <point x="1003.0" y="56.0"/>
      <point x="890.0" y="42.0"/>
      <point x="809.0" y="50.0" type="curve"/>
      <point x="829.0" y="13.0" type="line"/>
      <point x="1263.0" y="1484.0" type="line"/>
      <point x="1230.0" y="1484.0" type="line"/>
      <point x="932.0" y="1446.0" type="line"/>
      <point x="924.0" y="1407.0" type="line"/>
      <point x="981.0" y="1403.2469135802469"/>
      <point x="1131.0" y="1393.3703703703704"/>
      <point x="1167.0" y="1391.0" type="curve"/>
      <point x="935.0" y="597.0" type="line" smooth="yes"/>
      <point x="880.0" y="410.0"/>
      <point x="603.0" y="40.0"/>
      <point x="333.0" y="40.0" type="curve" smooth="yes"/>
      <point x="197.0" y="40.0"/>
      <point x="132.0" y="107.0"/>
      <point x="132.0" y="249.0" type="curve" smooth="yes"/>
      <point x="132.0" y="525.0"/>
      <point x="420.0" y="993.0"/>
      <point x="753.0" y="993.0" type="curve" smooth="yes"/>
      <point x="881.0" y="993.0"/>
      <point x="979.0" y="936.0"/>
    </contour>
  </outline>
</glyph>
<glyph name="p" format="2">
  <advance width="1288"/>
  <unicode hex="0070"/>
  <guideline x="118.0" y="-408" angle="178.67926807064498" identifier="YuSqUjhHHD"/>
  <anchor x="761.0" y="1024" name="top"/>
  <anchor x="68.0" y="-445" name="bottom"/>
  <outline>
    <contour>
      <point x="316.0" y="294.0" type="curve" smooth="yes"/>
      <point x="376.0" y="502.0" type="line" smooth="yes"/>
      <point x="413.0" y="629.0"/>
      <point x="606.0" y="985.0"/>
      <point x="911.0" y="985.0" type="curve" smooth="yes"/>
      <point x="1043.0" y="985.0"/>
      <point x="1127.0" y="888.0"/>
      <point x="1127.0" y="725.0" type="curve" smooth="yes"/>
      <point x="1127.0" y="385.0"/>
      <point x="898.0" y="31.0"/>
      <point x="563.0" y="31.0" type="curve" smooth="yes"/>
      <point x="387.0" y="31.0"/>
      <point x="304.0" y="109.0"/>
      <point x="304.0" y="218.0" type="curve" smooth="yes"/>
      <point x="304.0" y="242.0"/>
      <point x="308.0" y="268.0"/>
    </contour>
    <contour>
      <point x="264.0" y="179.0" type="line"/>
      <point x="282.0" y="51.0"/>
      <point x="381.0" y="-20.0"/>
      <point x="568.0" y="-20.0" type="curve" smooth="yes"/>
      <point x="930.0" y="-20.0"/>
      <point x="1205.0" y="357.0"/>
      <point x="1205.0" y="737.0" type="curve" smooth="yes"/>
      <point x="1205.0" y="920.0"/>
      <point x="1117.0" y="1044.0"/>
      <point x="916.0" y="1044.0" type="curve" smooth="yes"/>
      <point x="761.0" y="1044.0"/>
      <point x="592.0" y="955.0"/>
      <point x="422.0" y="679.0" type="curve"/>
      <point x="413.0" y="679.0" type="line"/>
      <point x="514.0" y="1030.0" type="line"/>
      <point x="493.0" y="1035.0"/>
      <point x="451.0" y="1039.0"/>
      <point x="422.0" y="1039.0" type="curve" smooth="yes"/>
      <point x="266.0" y="1039.0"/>
      <point x="149.0" y="1001.0"/>
      <point x="81.0" y="808.0" type="curve"/>
      <point x="104.0" y="808.0" type="line"/>
      <point x="155.0" y="913.0"/>
      <point x="236.0" y="969.0"/>
      <point x="360.0" y="969.0" type="curve" smooth="yes"/>
      <point x="383.0" y="969.0"/>
      <point x="412.0" y="969.0"/>
      <point x="431.0" y="963.0" type="curve"/>
      <point x="50.0" y="-381.0" type="line"/>
      <point x="-122.0" y="-397.0" type="line"/>
      <point x="-137.0" y="-445.0" type="line"/>
      <point x="292.0" y="-445.0" type="line"/>
      <point x="307.0" y="-397.0" type="line"/>
      <point x="125.0" y="-381.0" type="line"/>
      <point x="298.0" y="233.0" type="line"/>
    </contour>
  </outline>
</glyph>
<glyph name="t" format="2">
  <advance width="754"/>
  <unicode hex="0074"/>
  <anchor x="633.0" y="1535" name="right"/>
  <anchor x="375.0" y="0" name="bottom"/>
  <outline>
    <contour>
      <point x="159.0" y="967.0" type="line"/>
      <point x="790.0" y="967.0" type="line"/>
      <point x="790.0" y="1024.0" type="line"/>
      <point x="159.0" y="1024.0" type="line"/>
    </contour>
    <contour>
      <point x="279.0" y="246.0" type="curve" smooth="yes"/>
      <point x="583.0" y="1233.0" type="line"/>
      <point x="513.0" y="1233.0" type="line"/>
      <point x="212.0" y="258.0" type="line" smooth="yes"/>
      <point x="194.0" y="199.0"/>
      <point x="186.0" y="151.0"/>
      <point x="186.0" y="113.0" type="curve" smooth="yes"/>
      <point x="186.0" y="11.0"/>
      <point x="245.0" y="-20.0"/>
      <point x="319.0" y="-20.0" type="curve" smooth="yes"/>
      <point x="427.0" y="-20.0"/>
      <point x="508.0" y="29.0"/>
      <point x="652.0" y="175.0" type="curve"/>
      <point x="628.0" y="203.0" type="line"/>
      <point x="473.0" y="59.0"/>
      <point x="405.0" y="38.0"/>
      <point x="333.0" y="38.0" type="curve" smooth="yes"/>
      <point x="285.0" y="38.0"/>
      <point x="255.0" y="57.0"/>
      <point x="255.0" y="119.0" type="curve" smooth="yes"/>
      <point x="255.0" y="150.0"/>
      <point x="262.0" y="191.0"/>
    </contour>
  </outline>
</glyph>
<glyph name="braceleft" format="2">
  <advance width="672"/>
  <unicode hex="007B"/>
  <outline>
    <contour>
      <point x="102.0" y="592.0" type="line"/>
      <point x="173.0" y="592.0" type="line" smooth="yes"/>
      <point x="248.0" y="592.0"/>
      <point x="286.0" y="561.0"/>
      <point x="286.0" y="498.0" type="curve" smooth="yes"/>
      <point x="286.0" y="362.0"/>
      <point x="110.0" y="97.0"/>
      <point x="110.0" y="-54.0" type="curve" smooth="yes"/>
      <point x="110.0" y="-146.0"/>
      <point x="164.0" y="-223.0"/>
      <point x="297.0" y="-236.0" type="curve" smooth="yes"/>
      <point x="358.0" y="-242.0" type="line"/>
      <point x="373.0" y="-191.0" type="line"/>
      <point x="307.0" y="-183.0" type="line" smooth="yes"/>
      <point x="224.0" y="-173.0"/>
      <point x="187.0" y="-139.0"/>
      <point x="187.0" y="-69.0" type="curve" smooth="yes"/>
      <point x="187.0" y="64.0"/>
      <point x="347.0" y="371.0"/>
      <point x="347.0" y="491.0" type="curve" smooth="yes"/>
      <point x="347.0" y="572.0"/>
      <point x="299.0" y="619.0"/>
      <point x="205.0" y="626.0" type="curve"/>
      <point x="198.0" y="606.0" type="line"/>
      <point x="337.0" y="615.0"/>
      <point x="425.0" y="688.0"/>
      <point x="467.0" y="825.0" type="curve" smooth="yes"/>
      <point x="509.0" y="962.0"/>
      <point x="507.0" y="1120.0"/>
      <point x="541.0" y="1229.0" type="curve" smooth="yes"/>
      <point x="575.0" y="1338.0"/>
      <point x="641.0" y="1409.0"/>
      <point x="787.0" y="1425.0" type="curve" smooth="yes"/>
      <point x="858.0" y="1433.0" type="line"/>
      <point x="859.0" y="1484.0" type="line"/>
      <point x="794.0" y="1478.0" type="line" smooth="yes"/>
      <point x="592.0" y="1459.0"/>
      <point x="495.0" y="1354.0"/>
      <point x="457.0" y="1230.0" type="curve" smooth="yes"/>
      <point x="419.0" y="1106.0"/>
      <point x="430.0" y="957.0"/>
      <point x="391.0" y="827.0" type="curve" smooth="yes"/>
      <point x="352.0" y="697.0"/>
      <point x="289.0" y="650.0"/>
      <point x="190.0" y="650.0" type="curve" smooth="yes"/>
      <point x="120.0" y="650.0" type="line"/>
    </contour>
  </outline>
</glyph>
<glyph name="exclamdown" format="2">
  <advance width="541"/>
  <unicode hex="00A1"/>
  <outline>
    <contour>
      <point x="-44.0" y="-390.0" type="line" smooth="yes"/>
      <point x="-48.0" y="-404.0"/>
      <point x="-32.0" y="-410.0"/>
      <point x="-2.0" y="-410.0" type="curve" smooth="yes"/>
      <point x="25.0" y="-410.0"/>
      <point x="41.0" y="-404.0"/>
      <point x="45.0" y="-390.0" type="curve" smooth="yes"/>
      <point x="66.0" y="-323.0" type="line"/>
      <point x="104.32807570977913" y="-188.0"/>
      <point x="236.06309148264998" y="276.0"/>
      <point x="336.0" y="628.0" type="curve"/>
      <point x="287.0" y="628.0" type="line"/>
      <point x="171.88748685594106" y="276.0"/>
      <point x="20.148264984227154" y="-188.0"/>
      <point x="-24.0" y="-323.0" type="curve"/>
    </contour>
    <contour>
      <point x="372.0" y="840.0" type="curve" smooth="yes"/>
      <point x="458.0" y="840.0"/>
      <point x="499.0" y="901.0"/>
      <point x="499.0" y="967.0" type="curve" smooth="yes"/>
      <point x="499.0" y="1014.0"/>
      <point x="470.0" y="1038.0"/>
      <point x="421.0" y="1038.0" type="curve" smooth="yes"/>
      <point x="335.0" y="1038.0"/>
      <point x="294.0" y="977.0"/>
      <point x="294.0" y="911.0" type="curve" smooth="yes"/>
      <point x="294.0" y="864.0"/>
      <point x="323.0" y="840.0"/>
    </contour>
  </outline>
</glyph>
<glyph name="currency" format="2">
  <advance width="1012"/>
  <unicode hex="00A4"/>
  <outline>
    <contour>
      <point x="246.0" y="819.0" type="line"/>
      <point x="331.0" y="692.0" type="line"/>
      <point x="388.0" y="736.0" type="line"/>
      <point x="302.0" y="861.0" type="line"/>
    </contour>
    <contour>
      <point x="885.0" y="827.0" type="line"/>
      <point x="721.0" y="702.0" type="line"/>
      <point x="757.0" y="651.0" type="line"/>
      <point x="921.0" y="773.0" type="line"/>
    </contour>
    <contour>
      <point x="765.0" y="205.0" type="line"/>
      <point x="680.0" y="332.0" type="line"/>
      <point x="623.0" y="288.0" type="line"/>
      <point x="709.0" y="163.0" type="line"/>
    </contour>
    <contour>
      <point x="90.0" y="251.0" type="line"/>
      <point x="126.0" y="197.0" type="line"/>
      <point x="290.0" y="322.0" type="line"/>
      <point x="254.0" y="373.0" type="line"/>
    </contour>
    <contour>
      <point x="544.0" y="808.0" type="curve" smooth="yes"/>
      <point x="345.0" y="808.0"/>
      <point x="201.0" y="651.0"/>
      <point x="201.0" y="462.0" type="curve" smooth="yes"/>
      <point x="201.0" y="319.0"/>
      <point x="304.0" y="216.0"/>
      <point x="467.0" y="216.0" type="curve" smooth="yes"/>
      <point x="666.0" y="216.0"/>
      <point x="810.0" y="373.0"/>
      <point x="810.0" y="562.0" type="curve" smooth="yes"/>
      <point x="810.0" y="705.0"/>
      <point x="707.0" y="808.0"/>
    </contour>
    <contour>
      <point x="475.0" y="275.0" type="curve" smooth="yes"/>
      <point x="349.0" y="275.0"/>
      <point x="266.0" y="351.0"/>
      <point x="266.0" y="468.0" type="curve" smooth="yes"/>
      <point x="266.0" y="622.0"/>
      <point x="376.0" y="749.0"/>
      <point x="536.0" y="749.0" type="curve" smooth="yes"/>
      <point x="662.0" y="749.0"/>
      <point x="745.0" y="673.0"/>
      <point x="745.0" y="556.0" type="curve" smooth="yes"/>
      <point x="745.0" y="402.0"/>
      <point x="635.0" y="275.0"/>
    </contour>
  </outline>
</glyph>
<glyph name="copyright" format="2">
  <advance width="1778"/>
  <unicode hex="00A9"/>
  <outline>
    <contour>
      <point x="897.0" y="368.0" type="curve" smooth="yes"/>
      <point x="720.0" y="368.0"/>
      <point x="618.0" y="433.0"/>
      <point x="618.0" y="603.0" type="curve" smooth="yes"/>
      <point x="618.0" y="839.0"/>
      <point x="749.0" y="1055.0"/>
      <point x="1053.0" y="1055.0" type="curve" smooth="yes"/>
      <point x="1161.0" y="1055.0"/>
      <point x="1219.0" y="1039.0"/>
      <point x="1288.0" y="996.0" type="curve"/>
      <point x="1273.0" y="1075.0" type="line"/>
      <point x="1235.0" y="873.0" type="line"/>
      <point x="1290.0" y="873.0" type="line"/>
      <point x="1372.0" y="1140.0" type="line"/>
      <point x="1323.0" y="1140.0" type="line"/>
      <point x="1278.0" y="1069.0" type="line"/>
      <point x="1335.0" y="1075.0" type="line"/>
      <point x="1278.0" y="1106.0"/>
      <point x="1197.0" y="1123.0"/>
      <point x="1095.0" y="1123.0" type="curve" smooth="yes"/>
      <point x="717.0" y="1123.0"/>
      <point x="538.0" y="866.0"/>
      <point x="538.0" y="600.0" type="curve" smooth="yes"/>
      <point x="538.0" y="399.0"/>
      <point x="665.0" y="301.0"/>
      <point x="888.0" y="301.0" type="curve" smooth="yes"/>
      <point x="975.0" y="301.0"/>
      <point x="1063.0" y="318.0"/>
      <point x="1129.0" y="343.0" type="curve"/>
      <point x="1221.0" y="536.0" type="line"/>
      <point x="1169.0" y="536.0" type="line"/>
      <point x="1039.0" y="333.0" type="line"/>
      <point x="1106.0" y="407.0" type="line"/>
      <point x="1045.0" y="379.0"/>
      <point x="955.0" y="368.0"/>
    </contour>
    <contour>
      <point x="872.0" y="39.0" type="curve" smooth="yes"/>
      <point x="489.0" y="39.0"/>
      <point x="259.0" y="214.0"/>
      <point x="259.0" y="561.0" type="curve" smooth="yes"/>
      <point x="259.0" y="984.0"/>
      <point x="536.0" y="1376.0"/>
      <point x="1024.0" y="1376.0" type="curve" smooth="yes"/>
      <point x="1407.0" y="1376.0"/>
      <point x="1637.0" y="1201.0"/>
      <point x="1637.0" y="854.0" type="curve" smooth="yes"/>
      <point x="1637.0" y="430.0"/>
      <point x="1360.0" y="39.0"/>
    </contour>
    <contour>
      <point x="1028.0" y="1434.0" type="curve" smooth="yes"/>
      <point x="502.0" y="1434.0"/>
      <point x="193.0" y="1018.0"/>
      <point x="193.0" y="558.0" type="curve" smooth="yes"/>
      <point x="193.0" y="181.0"/>
      <point x="461.0" y="-20.0"/>
      <point x="868.0" y="-20.0" type="curve" smooth="yes"/>
      <point x="1394.0" y="-20.0"/>
      <point x="1703.0" y="397.0"/>
      <point x="1703.0" y="857.0" type="curve" smooth="yes"/>
      <point x="1703.0" y="1234.0"/>
      <point x="1435.0" y="1434.0"/>
    </contour>
  </outline>
</glyph>
<glyph name="logicalnot" format="2">
  <advance width="1200"/>
  <unicode hex="00AC"/>
  <outline>
    <contour>
      <point x="254.0" y="742.0" type="line"/>
      <point x="234.0" y="675.0" type="line"/>
      <point x="989.0" y="675.0" type="line"/>
      <point x="864.0" y="268.0" type="line"/>
      <point x="931.0" y="268.0" type="line"/>
      <point x="1076.0" y="742.0" type="line"/>
    </contour>
  </outline>
</glyph>
<glyph name="uni00B3" format="2">
  <advance width="703"/>
  <unicode hex="00B3"/>
  <outline>
    <contour>
      <point x="447.0" y="1029.0" type="line"/>
      <point x="494.0" y="1034.0" type="line" smooth="yes"/>
      <point x="611.0" y="1046.0"/>
      <point x="658.0" y="1001.0"/>
      <point x="658.0" y="932.0" type="curve" smooth="yes"/>
      <point x="658.0" y="812.0"/>
      <point x="562.0" y="701.0"/>
      <point x="388.0" y="701.0" type="curve" smooth="yes"/>
      <point x="263.0" y="701.0"/>
      <point x="225.0" y="769.0"/>
      <point x="217.0" y="769.0" type="curve" smooth="yes"/>
      <point x="185.0" y="769.0"/>
      <point x="167.0" y="744.0"/>
      <point x="167.0" y="719.0" type="curve" smooth="yes"/>
      <point x="167.0" y="684.0"/>
      <point x="209.0" y="652.0"/>
      <point x="349.0" y="652.0" type="curve" smooth="yes"/>
      <point x="592.0" y="652.0"/>
      <point x="726.0" y="778.0"/>
      <point x="726.0" y="941.0" type="curve" smooth="yes"/>
      <point x="726.0" y="1031.0"/>
      <point x="670.0" y="1094.0"/>
      <point x="541.0" y="1088.0" type="curve"/>
      <point x="540.0" y="1085.0" type="line"/>
      <point x="663.0" y="1097.0"/>
      <point x="763.0" y="1174.0"/>
      <point x="763.0" y="1285.0" type="curve" smooth="yes"/>
      <point x="763.0" y="1373.0"/>
      <point x="698.0" y="1434.0"/>
      <point x="583.0" y="1434.0" type="curve" smooth="yes"/>
      <point x="449.0" y="1434.0"/>
      <point x="377.0" y="1368.0"/>
      <point x="317.0" y="1240.0" type="curve"/>
      <point x="359.0" y="1220.0" type="line"/>
      <point x="411.0" y="1325.0"/>
      <point x="464.0" y="1374.0"/>
      <point x="563.0" y="1374.0" type="curve" smooth="yes"/>
      <point x="644.0" y="1374.0"/>
      <point x="691.0" y="1333.0"/>
      <point x="691.0" y="1260.0" type="curve" smooth="yes"/>
      <point x="691.0" y="1176.0"/>
      <point x="643.0" y="1105.0"/>
      <point x="457.0" y="1084.0" type="curve"/>
    </contour>
  </outline>
</glyph>
<glyph name="paragraph" format="2">
  <advance width="1298"/>
  <unicode hex="00B6"/>
  <outline>
    <contour>
      <point x="497.0" y="-223.0" type="line"/>
      <point x="977.0" y="1349.0" type="line"/>
      <point x="1206.0" y="1349.0" type="line"/>
      <point x="1226.0" y="1414.0" type="line"/>
      <point x="931.0" y="1414.0" type="line"/>
      <point x="430.0" y="-223.0" type="line"/>
    </contour>
    <contour>
      <point x="763.0" y="-223.0" type="line"/>
      <point x="1243.0" y="1347.0" type="line"/>
      <point x="1457.0" y="1363.0" type="line"/>
      <point x="1473.0" y="1414.0" type="line"/>
      <point x="1197.0" y="1414.0" type="line"/>
      <point x="696.0" y="-223.0" type="line"/>
    </contour>
    <contour>
      <point x="966.0" y="1414.0" type="line"/>
      <point x="760.0" y="1414.0" type="line" smooth="yes"/>
      <point x="337.681496001019" y="1414.0"/>
      <point x="220.0" y="1145.5358747436492"/>
      <point x="220.0" y="953.0" type="curve" smooth="yes"/>
      <point x="220.0" y="805.0"/>
      <point x="311.0" y="738.0"/>
      <point x="497.0" y="738.0" type="curve" smooth="yes"/>
      <point x="759.0" y="738.0" type="line"/>
    </contour>
  </outline>
</glyph>
<glyph name="guillemotright" format="2">
  <advance width="995"/>
  <unicode hex="00BB"/>
  <outline>
    <contour>
      <point x="466.0" y="517.0" type="line"/>
      <point x="479.0" y="559.0" type="line"/>
      <point x="14.0" y="157.0" type="line"/>
      <point x="43.0" y="116.0" type="line"/>
      <point x="513.0" y="489.0" type="line"/>
      <point x="534.0" y="555.0" type="line"/>
      <point x="285.0" y="928.0" type="line"/>
      <point x="244.0" y="903.0" type="line"/>
    </contour>
    <contour>
      <point x="827.0" y="517.0" type="line"/>
      <point x="840.0" y="559.0" type="line"/>
      <point x="375.0" y="157.0" type="line"/>
      <point x="404.0" y="116.0" type="line"/>
      <point x="874.0" y="489.0" type="line"/>
      <point x="895.0" y="555.0" type="line"/>
      <point x="646.0" y="928.0" type="line"/>
      <point x="605.0" y="903.0" type="line"/>
    </contour>
  </outline>
</glyph>
<glyph name="germandbls" format="2">
  <advance width="1349"/>
  <unicode hex="00DF"/>
  <outline>
    <contour>
      <point x="148.0" y="967.0" type="line"/>
      <point x="486.0" y="967.0" type="line"/>
      <point x="486.0" y="1024.0" type="line"/>
      <point x="148.0" y="1024.0" type="line"/>
    </contour>
    <contour>
      <point x="313" y="25" type="curve" smooth="yes"/>
      <point x="532" y="1039" type="line" smooth="yes"/>
      <point x="593" y="1321"/>
      <point x="754" y="1431"/>
      <point x="952" y="1431" type="curve" smooth="yes"/>
      <point x="1113" y="1431"/>
      <point x="1178" y="1361"/>
      <point x="1178" y="1269" type="curve" smooth="yes"/>
      <point x="1178" y="1164"/>
      <point x="1141" y="1110"/>
      <point x="996" y="1011" type="curve" smooth="yes"/>
      <point x="850" y="912"/>
      <point x="795" y="841"/>
      <point x="795" y="737" type="curve" smooth="yes"/>
      <point x="795" y="654"/>
      <point x="828" y="593"/>
      <point x="953" y="520" type="curve" smooth="yes"/>
      <point x="1078" y="447"/>
      <point x="1111" y="384"/>
      <point x="1111" y="294" type="curve" smooth="yes"/>
      <point x="1111" y="118"/>
      <point x="1006" y="31"/>
      <point x="798" y="31" type="curve" smooth="yes"/>
      <point x="739" y="31"/>
      <point x="702.0" y="36.0"/>
      <point x="681" y="58" type="curve" smooth="yes"/>
      <point x="660" y="80"/>
      <point x="657" y="114"/>
      <point x="661" y="174" type="curve"/>
      <point x="559" y="174"/>
      <point x="527" y="146"/>
      <point x="527" y="94" type="curve" smooth="yes"/>
      <point x="527" y="21"/>
      <point x="585" y="-20"/>
      <point x="781" y="-20" type="curve" smooth="yes"/>
      <point x="1043" y="-20"/>
      <point x="1175" y="94"/>
      <point x="1175" y="312" type="curve" smooth="yes"/>
      <point x="1175" y="405"/>
      <point x="1141" y="478"/>
      <point x="1012" y="559" type="curve" smooth="yes"/>
      <point x="882" y="640"/>
      <point x="856" y="677"/>
      <point x="856" y="746" type="curve" smooth="yes"/>
      <point x="856" y="829"/>
      <point x="889" y="884"/>
      <point x="1042" y="985" type="curve" smooth="yes"/>
      <point x="1195" y="1086"/>
      <point x="1242" y="1167"/>
      <point x="1242" y="1275" type="curve" smooth="yes"/>
      <point x="1242" y="1400"/>
      <point x="1146" y="1484"/>
      <point x="967" y="1484" type="curve" smooth="yes"/>
      <point x="722" y="1484"/>
      <point x="529" y="1356"/>
      <point x="456" y="1014" type="curve" smooth="yes"/>
      <point x="240" y="9" type="line" smooth="yes"/>
      <point x="177" y="-282"/>
      <point x="58" y="-419"/>
      <point x="-120" y="-419" type="curve" smooth="yes"/>
      <point x="-158" y="-419"/>
      <point x="-180" y="-416"/>
      <point x="-191" y="-397" type="curve" smooth="yes"/>
      <point x="-202" y="-378"/>
      <point x="-201" y="-347"/>
      <point x="-194" y="-291" type="curve"/>
      <point x="-279" y="-288"/>
      <point x="-313" y="-301"/>
      <point x="-313" y="-356" type="curve" smooth="yes"/>
      <point x="-313" y="-420"/>
      <point x="-261" y="-465"/>
      <point x="-138" y="-465" type="curve" smooth="yes"/>
      <point x="47" y="-465"/>
      <point x="228" y="-367"/>
    </contour>
  </outline>
</glyph>
<glyph name="eth" format="2">
  <advance width="1163"/>
  <unicode hex="00F0"/>
  <outline>
    <contour>
      <point x="1017.0" y="840.0" type="line"/>
      <point x="967.0" y="951.0"/>
      <point x="868.0" y="1012.0"/>
      <point x="707.0" y="1012.0" type="curve" smooth="yes"/>
      <point x="309.0" y="1012.0"/>
      <point x="88.0" y="641.0"/>
      <point x="88.0" y="313.0" type="curve" smooth="yes"/>
      <point x="88.0" y="102.0"/>
      <point x="207.0" y="-20.0"/>
      <point x="442.0" y="-20.0" type="curve" smooth="yes"/>
      <point x="802.0" y="-20.0"/>
      <point x="1024.0" y="277.0"/>
      <point x="1063.0" y="639.0" type="curve" smooth="yes"/>
      <point x="1100.0" y="982.0"/>
      <point x="1029.0" y="1337.0"/>
      <point x="505.0" y="1480.0" type="curve"/>
      <point x="488.0" y="1431.0" type="line"/>
      <point x="812.0" y="1328.0"/>
      <point x="963.0" y="1159.0"/>
      <point x="991.0" y="840.0" type="curve"/>
    </contour>
    <contour>
      <point x="438.0" y="36.0" type="curve" smooth="yes"/>
      <point x="260.0" y="36.0"/>
      <point x="164.0" y="127.0"/>
      <point x="164.0" y="324.0" type="curve" smooth="yes"/>
      <point x="164.0" y="626.0"/>
      <point x="355.0" y="956.0"/>
      <point x="711.0" y="956.0" type="curve" smooth="yes"/>
      <point x="889.0" y="956.0"/>
      <point x="985.0" y="865.0"/>
      <point x="985.0" y="668.0" type="curve" smooth="yes"/>
      <point x="985.0" y="366.0"/>
      <point x="794.0" y="36.0"/>
    </contour>
    <contour>
      <point x="544.0" y="1093.0" type="line"/>
      <point x="1092.0" y="1430.0" type="line"/>
      <point x="1063.0" y="1484.0" type="line"/>
      <point x="515.0" y="1147.0" type="line"/>
    </contour>
  </outline>
</glyph>
<glyph name="Aogonek" format="2">
  <advance width="1505"/>
  <unicode hex="0104"/>
  <outline>
    <contour>
      <point x="422.0" y="522.0" type="line"/>
      <point x="1075.0" y="522.0" type="line"/>
      <point x="1095.0" y="586.0" type="line"/>
      <point x="443.0" y="586.0" type="line"/>
    </contour>
    <contour>
      <point x="1179.0" y="62.0" type="line"/>
      <point x="1060.0" y="1414.0" type="line"/>
      <point x="969.0" y="1414.0" type="line"/>
      <point x="75.0" y="63.0" type="line"/>
      <point x="-116.0" y="47.0" type="line"/>
      <point x="-130.0" y="0.0" type="line"/>
      <point x="322.0" y="0.0" type="line"/>
      <point x="337.0" y="47.0" type="line"/>
      <point x="147.0" y="62.0" type="line"/>
      <point x="1010.0" y="1372.0" type="line"/>
      <point x="990.0" y="1372.0" type="line"/>
      <point x="1102.0" y="63.0" type="line"/>
      <point x="884.0" y="47.0" type="line"/>
      <point x="869.0" y="0.0" type="line"/>
      <point x="1351.0" y="0.0" type="line"/>
      <point x="1365.0" y="47.0" type="line"/>
    </contour>
    <contour>
      <point x="962.0" y="-332.0" type="curve" smooth="yes"/>
      <point x="962.0" y="-287.0"/>
      <point x="976.0" y="-239.0"/>
      <point x="1060.0" y="-130.0" type="curve" smooth="yes"/>
      <point x="1160.0" y="0.0" type="line"/>
      <point x="1104.0" y="0.0" type="line"/>
      <point x="1011.0" y="-116.0" type="line" smooth="yes"/>
      <point x="904.0" y="-250.0"/>
      <point x="885.0" y="-301.0"/>
      <point x="885.0" y="-354.0" type="curve" smooth="yes"/>
      <point x="885.0" y="-414.0"/>
      <point x="920.0" y="-465.0"/>
      <point x="1013.0" y="-465.0" type="curve" smooth="yes"/>
      <point x="1066.0" y="-465.0"/>
      <point x="1119.0" y="-449.0"/>
      <point x="1172.0" y="-411.0" type="curve"/>
      <point x="1172.0" y="-367.0" type="line"/>
      <point x="1117.0" y="-398.0"/>
      <point x="1090.0" y="-406.0"/>
      <point x="1050.0" y="-406.0" type="curve" smooth="yes"/>
      <point x="993.0" y="-406.0"/>
      <point x="962.0" y="-376.0"/>
    </contour>
  </outline>
</glyph>
<glyph name="OE" format="2">
  <advance width="2216"/>
  <unicode hex="0152"/>
  <outline>
    <contour>
      <point x="1424.0" y="1414.0" type="line"/>
      <point x="992.0" y="0.0" type="line"/>
      <point x="1068.0" y="0.0" type="line"/>
      <point x="1500.0" y="1414.0" type="line"/>
    </contour>
    <contour>
      <point x="1079.0" y="1414.0" type="line" smooth="yes"/>
      <point x="530.0" y="1414.0"/>
      <point x="180.0" y="1043.0"/>
      <point x="180.0" y="506.0" type="curve" smooth="yes"/>
      <point x="180.0" y="151.0"/>
      <point x="347.0" y="0.0"/>
      <point x="757.0" y="0.0" type="curve" smooth="yes"/>
      <point x="1814.0" y="0.0" type="line"/>
      <point x="1805.0" y="-72.0" type="line"/>
      <point x="1867.0" y="-72.0" type="line"/>
      <point x="2074.0" y="380.0" type="line"/>
      <point x="2018.0" y="380.0" type="line"/>
      <point x="1818.0" y="42.0" type="line"/>
      <point x="1895.0" y="64.0" type="line"/>
      <point x="806.0" y="64.0" type="line" smooth="yes"/>
      <point x="390.0" y="64.0"/>
      <point x="264.0" y="208.0"/>
      <point x="264.0" y="510.0" type="curve" smooth="yes"/>
      <point x="264.0" y="1034.0"/>
      <point x="597.0" y="1350.0"/>
      <point x="1065.0" y="1350.0" type="curve" smooth="yes"/>
      <point x="2268.0" y="1350.0" type="line"/>
      <point x="2242.0" y="1402.0" type="line"/>
      <point x="2168.0" y="1068.0" type="line"/>
      <point x="2226.0" y="1068.0" type="line"/>
      <point x="2360.0" y="1484.0" type="line"/>
      <point x="2315.0" y="1484.0" type="line"/>
      <point x="2255.0" y="1414.0" type="line"/>
    </contour>
    <contour>
      <point x="1743.0" y="477.0" type="line"/>
      <point x="1821.0" y="732.0" type="line"/>
      <point x="1899.0" y="988.0" type="line"/>
      <point x="1851.0" y="988.0" type="line"/>
      <point x="1754.0" y="766.0" type="line"/>
      <point x="1288.0" y="766.0" type="line"/>
      <point x="1267.0" y="702.0" type="line"/>
      <point x="1735.0" y="702.0" type="line"/>
      <point x="1695.0" y="477.0" type="line"/>
    </contour>
  </outline>
</glyph>
<glyph name="uogonek" format="2">
  <advance width="1293"/>
  <unicode hex="0173"/>
  <outline>
    <contour>
      <point x="1224.0" y="122.0" type="curve"/>
      <point x="1209.0" y="154.0" type="line"/>
      <point x="1018.0" y="56.0"/>
      <point x="905.0" y="42.0"/>
      <point x="824.0" y="50.0" type="curve"/>
      <point x="846.0" y="14.0" type="line"/>
      <point x="1172.0" y="1024.0" type="line"/>
      <point x="1096.0" y="1024.0" type="line"/>
      <point x="966.0" y="623.0" type="line" smooth="yes"/>
      <point x="858.0" y="289.0"/>
      <point x="613.0" y="53.0"/>
      <point x="392.0" y="53.0" type="curve" smooth="yes"/>
      <point x="294.0" y="53.0"/>
      <point x="250.0" y="94.0"/>
      <point x="250.0" y="173.0" type="curve" smooth="yes"/>
      <point x="250.0" y="219.0"/>
      <point x="264.0" y="277.0"/>
      <point x="291.0" y="347.0" type="curve" smooth="yes"/>
      <point x="526.0" y="966.0" type="line" smooth="yes"/>
      <point x="547.0" y="1021.0"/>
      <point x="534.0" y="1044.0"/>
      <point x="474.0" y="1044.0" type="curve" smooth="yes"/>
      <point x="405.0" y="1044.0"/>
      <point x="261.0" y="1003.0"/>
      <point x="68.0" y="861.0" type="curve"/>
      <point x="85.0" y="830.0" type="line"/>
      <point x="285.0" y="954.0"/>
      <point x="400.0" y="982.0"/>
      <point x="488.0" y="974.0" type="curve"/>
      <point x="466.0" y="1005.0" type="line"/>
      <point x="220.0" y="364.0" type="line" smooth="yes"/>
      <point x="189.0" y="284.0"/>
      <point x="172.0" y="213.0"/>
      <point x="172.0" y="155.0" type="curve" smooth="yes"/>
      <point x="172.0" y="45.0"/>
      <point x="233.0" y="-20.0"/>
      <point x="378.0" y="-20.0" type="curve" smooth="yes"/>
      <point x="543.0" y="-20.0"/>
      <point x="737.0" y="112.0"/>
      <point x="917.0" y="427.0" type="curve"/>
      <point x="926.0" y="427.0" type="line"/>
      <point x="795.0" y="52.0" type="line" smooth="yes"/>
      <point x="776.0" y="-1.0"/>
      <point x="788.0" y="-20.0"/>
      <point x="838.0" y="-20.0" type="curve" smooth="yes"/>
      <point x="885.0" y="-20.0"/>
      <point x="969.0" y="-6.0"/>
      <point x="1084.0" y="46.0" type="curve"/>
      <point x="1077.0" y="57.0" type="line"/>
      <point x="886.0" y="-113.0" type="line" smooth="yes"/>
      <point x="759.0" y="-226.0"/>
      <point x="734.0" y="-285.0"/>
      <point x="734.0" y="-354.0" type="curve" smooth="yes"/>
      <point x="734.0" y="-414.0"/>
      <point x="769.0" y="-465.0"/>
      <point x="862.0" y="-465.0" type="curve" smooth="yes"/>
      <point x="915.0" y="-465.0"/>
      <point x="968.0" y="-449.0"/>
      <point x="1021.0" y="-411.0" type="curve"/>
      <point x="1021.0" y="-367.0" type="line"/>
      <point x="966.0" y="-398.0"/>
      <point x="939.0" y="-406.0"/>
      <point x="899.0" y="-406.0" type="curve" smooth="yes"/>
      <point x="842.0" y="-406.0"/>
      <point x="811.0" y="-376.0"/>
      <point x="811.0" y="-332.0" type="curve" smooth="yes"/>
      <point x="811.0" y="-277.0"/>
      <point x="829.0" y="-223.0"/>
      <point x="932.0" y="-129.0" type="curve" smooth="yes"/>
      <point x="1177.0" y="94.0" type="line"/>
      <point x="1192.0" y="103.0"/>
      <point x="1208.0" y="112.0"/>
    </contour>
  </outline>
</glyph>
<glyph name="uni018F" format="2">
  <advance width="1441"/>
  <unicode hex="018F"/>
  <outline>
    <contour>
      <point x="177.0" y="677.0" type="line"/>
      <point x="151.0" y="570.0"/>
      <point x="138.0" y="476.0"/>
      <point x="138.0" y="394.0" type="curve" smooth="yes"/>
      <point x="138.0" y="117.0"/>
      <point x="288.0" y="-20.0"/>
      <point x="587.0" y="-20.0" type="curve" smooth="yes"/>
      <point x="1088.0" y="-20.0"/>
      <point x="1396.0" y="512.0"/>
      <point x="1396.0" y="972.0" type="curve" smooth="yes"/>
      <point x="1396.0" y="1292.0"/>
      <point x="1198.0" y="1434.0"/>
      <point x="890.0" y="1434.0" type="curve" smooth="yes"/>
      <point x="689.0" y="1434.0"/>
      <point x="530.0" y="1390.0"/>
      <point x="357.0" y="1292.0" type="curve"/>
      <point x="339.0" y="1222.0" type="line"/>
      <point x="513.0" y="1322.0"/>
      <point x="671.0" y="1363.0"/>
      <point x="836.0" y="1363.0" type="curve" smooth="yes"/>
      <point x="1150.0" y="1363.0"/>
      <point x="1321.0" y="1239.0"/>
      <point x="1321.0" y="958.0" type="curve" smooth="yes"/>
      <point x="1321.0" y="506.0"/>
      <point x="1046.0" y="46.0"/>
      <point x="583.0" y="46.0" type="curve" smooth="yes"/>
      <point x="336.0" y="46.0"/>
      <point x="212.0" y="175.0"/>
      <point x="212.0" y="405.0" type="curve" smooth="yes"/>
      <point x="212.0" y="472.0"/>
      <point x="223.0" y="548.0"/>
      <point x="244.0" y="632.0" type="curve"/>
      <point x="203.0" y="611.0" type="line"/>
      <point x="1281.0" y="611.0" type="line"/>
      <point x="1302.0" y="677.0" type="line"/>
    </contour>
  </outline>
</glyph>
<glyph name="uni0237" format="2">
  <advance width="590"/>
  <unicode hex="0237"/>
  <anchor x="473.0" y="1024" name="top"/>
  <anchor x="-109.0" y="-445" name="bottom"/>
  <outline>
    <contour>
      <point x="249" y="79" type="curve" smooth="yes"/>
      <point x="520" y="966" type="line" smooth="yes"/>
      <point x="537" y="1021"/>
      <point x="528" y="1044"/>
      <point x="468" y="1044" type="curve" smooth="yes"/>
      <point x="399" y="1044"/>
      <point x="256" y="998"/>
      <point x="68" y="850" type="curve"/>
      <point x="87" y="819" type="line"/>
      <point x="282" y="950"/>
      <point x="394" y="982"/>
      <point x="482" y="974" type="curve"/>
      <point x="460" y="1005" type="line"/>
      <point x="185" y="101" type="line" smooth="yes"/>
      <point x="60" y="-310"/>
      <point x="-71" y="-408"/>
      <point x="-186" y="-408" type="curve" smooth="yes"/>
      <point x="-209.0" y="-408.0"/>
      <point x="-231" y="-392"/>
      <point x="-250" y="-366" type="curve" smooth="yes"/>
      <point x="-269.0" y="-340"/>
      <point x="-279" y="-316"/>
      <point x="-283" y="-316" type="curve" smooth="yes"/>
      <point x="-324" y="-316"/>
      <point x="-355" y="-354"/>
      <point x="-355" y="-395" type="curve" smooth="yes"/>
      <point x="-355" y="-442"/>
      <point x="-301" y="-465"/>
      <point x="-234" y="-465" type="curve" smooth="yes"/>
      <point x="-47" y="-465"/>
      <point x="125" y="-328"/>
    </contour>
  </outline>
</glyph>
<glyph name="uni0259" format="2">
  <advance width="1057"/>
  <unicode hex="0259"/>
  <outline>
    <contour>
      <point x="341.0" y="32.0" type="curve" smooth="yes"/>
      <point x="134.0" y="32.0"/>
      <point x="99.0" y="180.0"/>
      <point x="155.0" y="347.0" type="curve"/>
      <point x="282.0" y="393.0"/>
      <point x="493.0" y="441.0"/>
      <point x="883.0" y="506.0" type="curve"/>
      <point x="881.0" y="552.0" type="line"/>
      <point x="529.0" y="494.0"/>
      <point x="303.0" y="450.0"/>
      <point x="99.0" y="395.0" type="curve"/>
      <point x="73.0" y="323.0"/>
      <point x="60.0" y="259.0"/>
      <point x="60.0" y="205.0" type="curve" smooth="yes"/>
      <point x="60.0" y="59.0"/>
      <point x="152.0" y="-20.0"/>
      <point x="327.0" y="-20.0" type="curve" smooth="yes"/>
      <point x="706.0" y="-20.0"/>
      <point x="957.0" y="275.0"/>
      <point x="957.0" y="704.0" type="curve" smooth="yes"/>
      <point x="957.0" y="942.0"/>
      <point x="822.0" y="1044.0"/>
      <point x="631.0" y="1044.0" type="curve" smooth="yes"/>
      <point x="437.0" y="1044.0"/>
      <point x="285.0" y="978.0"/>
      <point x="147.0" y="673.0" type="curve"/>
      <point x="196.0" y="673.0" type="line"/>
      <point x="323.0" y="915.0"/>
      <point x="439.0" y="980.0"/>
      <point x="624.0" y="980.0" type="curve" smooth="yes"/>
      <point x="796.0" y="980.0"/>
      <point x="883.0" y="880.0"/>
      <point x="883.0" y="677.0" type="curve" smooth="yes"/>
      <point x="883.0" y="273.0"/>
      <point x="644.0" y="32.0"/>
    </contour>
  </outline>
</glyph>
<glyph name="uni02B9" format="2">
  <advance width="357"/>
  <unicode hex="02B9"/>
  <outline>
    <contour>
      <point x="250.0" y="990.0" type="line"/>
      <point x="296.0" y="990.0" type="line"/>
      <point x="530.0" y="1392.0" type="line"/>
      <point x="537.0" y="1414.0" type="line"/>
      <point x="437.0" y="1414.0" type="line"/>
    </contour>
  </outline>
</glyph>
<glyph name="gravecomb" format="2">
  <unicode hex="0300"/>
  <guideline x="135" y="949" angle="73" identifier="DSpNla37yz"/>
  <anchor x="157" y="1024.0" name="_top"/>
  <anchor x="292" y="1463" name="top"/>
  <outline>
    <contour>
      <point x="218.0" y="1138.0" type="line"/>
      <point x="106.0" y="1464.0" type="line"/>
      <point x="15.0" y="1464.0" type="line"/>
      <point x="15.0" y="1448.0" type="line"/>
      <point x="179.0" y="1138.0" type="line"/>
    </contour>
  </outline>
</glyph>
<glyph name="tildecomb" format="2">
  <unicode hex="0303"/>
  <guideline x="156" y="1023" angle="73" identifier="zTQxW9OgzR"/>
  <anchor x="157" y="1024.0" name="_top"/>
  <anchor x="267" y="1387.0" name="top"/>
  <outline>
    <contour>
      <point x="553.0" y="1440.0" type="curve"/>
      <point x="500.0" y="1440.0" type="line"/>
      <point x="414.0" y="1251.0"/>
      <point x="385.0" y="1225.0"/>
      <point x="337.0" y="1225.0" type="curve" smooth="yes"/>
      <point x="258.0" y="1225.0"/>
      <point x="253.0" y="1450.0"/>
      <point x="139.0" y="1450.0" type="curve" smooth="yes"/>
      <point x="72.0" y="1450.0"/>
      <point x="9.0" y="1402.0"/>
      <point x="-92.0" y="1162.0" type="curve"/>
      <point x="-39.0" y="1162.0" type="line"/>
      <point x="47.0" y="1351.0"/>
      <point x="76.0" y="1377.0"/>
      <point x="124.0" y="1377.0" type="curve" smooth="yes"/>
      <point x="203.0" y="1377.0"/>
      <point x="208.0" y="1152.0"/>
      <point x="322.0" y="1152.0" type="curve" smooth="yes"/>
      <point x="389.0" y="1152.0"/>
      <point x="452.0" y="1200.0"/>
    </contour>
  </outline>
</glyph>
<glyph name="uni030C" format="2">
  <unicode hex="030C"/>
  <anchor x="157" y="1024.0" name="_top"/>
  <anchor x="291" y="1464.0" name="top"/>
  <outline>
    <contour>
      <point x="574.0" y="1464.0" type="line"/>
      <point x="504.0" y="1464.0" type="line"/>
      <point x="187.0" y="1193.0" type="line"/>
      <point x="214.0" y="1193.0" type="line"/>
      <point x="63.0" y="1464.0" type="line"/>
      <point x="9.0" y="1464.0" type="line"/>
      <point x="157.0" y="1138.0" type="line"/>
      <point x="228.0" y="1138.0" type="line"/>
    </contour>
  </outline>
</glyph>
<glyph name="uni030F" format="2">
  <unicode hex="030F"/>
  <anchor x="157" y="1024.0" name="_top"/>
  <anchor x="291" y="1464.0" name="top"/>
  <outline>
    <contour>
      <point x="107.0" y="1138.0" type="line"/>
      <point x="-36.0" y="1464.0" type="line"/>
      <point x="-136.0" y="1464.0" type="line"/>
      <point x="-136.0" y="1448.0" type="line"/>
      <point x="64.0" y="1138.0" type="line"/>
    </contour>
    <contour>
      <point x="332.0" y="1138.0" type="line"/>
      <point x="268.0" y="1464.0" type="line"/>
      <point x="177.0" y="1464.0" type="line"/>
      <point x="177.0" y="1448.0" type="line"/>
      <point x="290.0" y="1138.0" type="line"/>
    </contour>
  </outline>
</glyph>
<glyph name="uni0324" format="2">
  <unicode hex="0324"/>
  <anchor x="-157" y="0" name="_bottom"/>
  <anchor x="-299" y="-465.0" name="bottom"/>
  <outline>
    <contour>
      <point x="-427.0" y="-304.0" type="curve" smooth="yes"/>
      <point x="-374.0" y="-304.0"/>
      <point x="-339.0" y="-274.0"/>
      <point x="-339.0" y="-216.0" type="curve" smooth="yes"/>
      <point x="-339.0" y="-158.0"/>
      <point x="-374.0" y="-132.0"/>
      <point x="-427.0" y="-132.0" type="curve" smooth="yes"/>
      <point x="-480.0" y="-132.0"/>
      <point x="-515.0" y="-158.0"/>
      <point x="-515.0" y="-216.0" type="curve" smooth="yes"/>
      <point x="-515.0" y="-274.0"/>
      <point x="-480.0" y="-304.0"/>
    </contour>
    <contour>
      <point x="-21.0" y="-304.0" type="curve" smooth="yes"/>
      <point x="32.0" y="-304.0"/>
      <point x="67.0" y="-274.0"/>
      <point x="67.0" y="-216.0" type="curve" smooth="yes"/>
      <point x="67.0" y="-158.0"/>
      <point x="32.0" y="-132.0"/>
      <point x="-21.0" y="-132.0" type="curve" smooth="yes"/>
      <point x="-74.0" y="-132.0"/>
      <point x="-109.0" y="-158.0"/>
      <point x="-109.0" y="-216.0" type="curve" smooth="yes"/>
      <point x="-109.0" y="-274.0"/>
      <point x="-74.0" y="-304.0"/>
    </contour>
  </outline>
</glyph>
<glyph name="uni0326" format="2">
  <unicode hex="0326"/>
  <anchor x="-157" y="0" name="_bottom"/>
  <anchor x="-299" y="-465" name="bottom"/>
  <outline>
    <contour>
      <point x="-240.0" y="-81.0"/>
      <point x="-277.0" y="-128.0"/>
      <point x="-277.0" y="-165.0" type="curve" smooth="yes"/>
      <point x="-277.0" y="-194.0"/>
      <point x="-189.0" y="-196.0"/>
      <point x="-189.0" y="-245.0" type="curve" smooth="yes"/>
      <point x="-189.0" y="-278.0"/>
      <point x="-219.0" y="-346.0"/>
      <point x="-388.0" y="-389.0" type="curve"/>
      <point x="-388.0" y="-433.0" type="line"/>
      <point x="-146.0" y="-369.0"/>
      <point x="-100.0" y="-255.0"/>
      <point x="-100.0" y="-165.0" type="curve" smooth="yes"/>
      <point x="-100.0" y="-104.0"/>
      <point x="-131.0" y="-81.0"/>
      <point x="-175.0" y="-81.0" type="curve" smooth="yes"/>
    </contour>
  </outline>
</glyph>
<glyph name="uni032E" format="2">
  <unicode hex="032E"/>
  <anchor x="-157" y="0" name="_bottom"/>
  <anchor x="-299" y="-465.0" name="bottom"/>
  <outline>
    <contour>
      <point x="-256.0" y="-312.0" type="curve" smooth="yes"/>
      <point x="-384.0" y="-312.0"/>
      <point x="-423.0" y="-257.0"/>
      <point x="-400.0" y="-50.0" type="curve"/>
      <point x="-444.0" y="-50.0" type="line"/>
      <point x="-476.0" y="-304.0"/>
      <point x="-431.0" y="-386.0"/>
      <point x="-268.0" y="-386.0" type="curve" smooth="yes"/>
      <point x="-116.0" y="-386.0"/>
      <point x="-23.0" y="-312.0"/>
      <point x="102.0" y="-50.0" type="curve"/>
      <point x="48.0" y="-50.0" type="line"/>
      <point x="-50.0" y="-256.0"/>
      <point x="-128.0" y="-312.0"/>
    </contour>
  </outline>
</glyph>
<glyph name="endash" format="2">
  <advance width="987"/>
  <unicode hex="2013"/>
  <outline>
    <contour>
      <point x="117.0" y="555.0" type="line"/>
      <point x="96.0" y="489.0" type="line"/>
      <point x="875.0" y="489.0" type="line"/>
      <point x="896.0" y="555.0" type="line"/>
    </contour>
  </outline>
</glyph>
<glyph name="guilsinglright" format="2">
  <advance width="634"/>
  <unicode hex="203A"/>
  <outline>
    <contour>
      <point x="466.0" y="517.0" type="line"/>
      <point x="479.0" y="559.0" type="line"/>
      <point x="14.0" y="157.0" type="line"/>
      <point x="43.0" y="116.0" type="line"/>
      <point x="513.0" y="489.0" type="line"/>
      <point x="534.0" y="555.0" type="line"/>
      <point x="285.0" y="928.0" type="line"/>
      <point x="244.0" y="903.0" type="line"/>
    </contour>
  </outline>
</glyph>
<glyph name="uni2074" format="2">
  <advance width="760"/>
  <unicode hex="2074"/>
  <outline>
    <contour>
      <point x="694.0" y="1387.0" type="line"/>
      <point x="490.0" y="719.0" type="line"/>
      <point x="313.0" y="703.0" type="line"/>
      <point x="301.0" y="662.0" type="line"/>
      <point x="705.0" y="662.0" type="line"/>
      <point x="717.0" y="703.0" type="line"/>
      <point x="558.0" y="719.0" type="line"/>
      <point x="774.0" y="1428.0" type="line"/>
      <point x="685.0" y="1428.0" type="line"/>
      <point x="199.0" y="956.0" type="line"/>
      <point x="186.0" y="914.0" type="line"/>
      <point x="777.0" y="914.0" type="line"/>
      <point x="834.0" y="992.0" type="line"/>
      <point x="748.0" y="976.0" type="line"/>
      <point x="249.0" y="976.0" type="line"/>
      <point x="262.0" y="949.0" type="line"/>
      <point x="711.0" y="1387.0" type="line"/>
    </contour>
  </outline>
</glyph>
<glyph name="uni20A6" format="2">
  <advance width="1300"/>
  <unicode hex="20A6"/>
  <outline>
    <contour>
      <point x="1233.0" y="580.0" type="line"/>
      <point x="117.0" y="580.0" type="line"/>
      <point x="96.0" y="514.0" type="line"/>
      <point x="1213.0" y="514.0" type="line"/>
    </contour>
    <contour>
      <point x="1331.0" y="900.0" type="line"/>
      <point x="214.0" y="900.0" type="line"/>
      <point x="194.0" y="834.0" type="line"/>
      <point x="1310.0" y="834.0" type="line"/>
    </contour>
    <contour>
      <point x="1293.0" y="1351.0" type="line"/>
      <point x="1454.0" y="1367.0" type="line"/>
      <point x="1469.0" y="1414.0" type="line"/>
      <point x="1094.0" y="1414.0" type="line"/>
      <point x="1079.0" y="1367.0" type="line"/>
      <point x="1228.0" y="1351.0" type="line"/>
      <point x="832.0" y="55.0" type="line"/>
      <point x="848.0" y="55.0" type="line"/>
      <point x="661.0" y="1414.0" type="line"/>
      <point x="401.0" y="1414.0" type="line"/>
      <point x="386.0" y="1367.0" type="line"/>
      <point x="537.0" y="1351.0" type="line"/>
      <point x="144.0" y="63.0" type="line"/>
      <point x="-17.0" y="47.0" type="line"/>
      <point x="-31.0" y="0.0" type="line"/>
      <point x="344.0" y="0.0" type="line"/>
      <point x="359.0" y="47.0" type="line"/>
      <point x="209.0" y="63.0" type="line"/>
      <point x="603.0" y="1352.0" type="line"/>
      <point x="595.0" y="1346.0" type="line"/>
      <point x="787.0" y="-20.0" type="line"/>
      <point x="875.0" y="-20.0" type="line"/>
    </contour>
  </outline>
</glyph>
<glyph name="minus" format="2">
  <advance width="1200"/>
  <unicode hex="2212"/>
  <outline>
    <contour>
      <point x="199.0" y="545.0" type="line"/>
      <point x="179.0" y="479.0" type="line"/>
      <point x="1001.0" y="479.0" type="line"/>
      <point x="1021.0" y="545.0" type="line"/>
    </contour>
  </outline>
</glyph>
<glyph name="greaterequal" format="2">
  <advance width="1200"/>
  <unicode hex="2265"/>
  <outline>
    <contour>
      <point x="889.0" y="66.0" type="line"/>
      <point x="53.0" y="66.0" type="line"/>
      <point x="32.0" y="0.0" type="line"/>
      <point x="868.0" y="0.0" type="line"/>
    </contour>
    <contour>
      <point x="1011.0" y="655.0" type="line"/>
      <point x="131.0" y="323.0" type="line"/>
      <point x="107.0" y="242.0" type="line"/>
      <point x="1054.0" y="606.0" type="line"/>
      <point x="1074.0" y="672.0" type="line"/>
      <point x="349.0" y="1036.0" type="line"/>
      <point x="329.0" y="971.0" type="line"/>
      <point x="1005.0" y="633.0" type="line"/>
    </contour>
  </outline>
</glyph>
<glyph name="f_f_i" format="2">
  <advance width="1849"/>
  <unicode hex="FB03"/>
  <outline>
    <contour>
      <point x="456.0" y="1014.0" type="curve" smooth="yes"/>
      <point x="240.0" y="9.0" type="line" smooth="yes"/>
      <point x="177" y="-282"/>
      <point x="58.0" y="-419.0"/>
      <point x="-120.0" y="-419.0" type="curve" smooth="yes"/>
      <point x="-158.0" y="-419.0"/>
      <point x="-180.0" y="-416.0"/>
      <point x="-191.0" y="-397.0" type="curve" smooth="yes"/>
      <point x="-202.0" y="-378.0"/>
      <point x="-201.0" y="-347.0"/>
      <point x="-194.0" y="-291.0" type="curve"/>
      <point x="-291.0" y="-288.0"/>
      <point x="-313.0" y="-308.0"/>
      <point x="-313.0" y="-356.0" type="curve" smooth="yes"/>
      <point x="-313.0" y="-420.0"/>
      <point x="-261.0" y="-465.0"/>
      <point x="-138.0" y="-465.0" type="curve" smooth="yes"/>
      <point x="75.0" y="-465.0"/>
      <point x="235" y="-336"/>
      <point x="313.0" y="25.0" type="curve" smooth="yes"/>
      <point x="530.0" y="1026.0" type="line" smooth="yes"/>
      <point x="595" y="1328"/>
      <point x="736.0" y="1421.0"/>
      <point x="937.0" y="1421.0" type="curve" smooth="yes"/>
      <point x="1069.0" y="1421.0"/>
      <point x="1133.0" y="1369.0"/>
      <point x="1165.0" y="1288.0" type="curve"/>
      <point x="1234.0" y="1358.0" type="line"/>
      <point x="1190.0" y="1423.0"/>
      <point x="1106.0" y="1464.0"/>
      <point x="961.0" y="1464.0" type="curve" smooth="yes"/>
      <point x="711.0" y="1464.0"/>
      <point x="526" y="1341"/>
    </contour>
    <contour>
      <point x="1013.0" y="972.0" type="curve" smooth="yes"/>
      <point x="806.0" y="9.0" type="line" smooth="yes"/>
      <point x="744" y="-280"/>
      <point x="599.0" y="-399.0"/>
      <point x="430.0" y="-399.0" type="curve" smooth="yes"/>
      <point x="310.0" y="-399.0"/>
      <point x="229.0" y="-322.0"/>
      <point x="207.0" y="-222.0" type="curve"/>
      <point x="130.0" y="-301.0" type="line"/>
      <point x="189.0" y="-397.0"/>
      <point x="283.0" y="-445.0"/>
      <point x="411.0" y="-445.0" type="curve" smooth="yes"/>
      <point x="631.0" y="-445.0"/>
      <point x="804" y="-323"/>
      <point x="879.0" y="25.0" type="curve" smooth="yes"/>
      <point x="1097.0" y="1032.0" type="line" smooth="yes"/>
      <point x="1159.0" y="1317.0"/>
      <point x="1307.0" y="1441.0"/>
      <point x="1550.0" y="1441.0" type="curve" smooth="yes"/>
      <point x="1613.0" y="1441.0"/>
      <point x="1653.0" y="1422.0"/>
      <point x="1672.0" y="1397.0" type="curve" smooth="yes"/>
      <point x="1691.0" y="1372.0"/>
      <point x="1697.0" y="1337.0"/>
      <point x="1692.0" y="1297.0" type="curve"/>
      <point x="1782.0" y="1294.0"/>
      <point x="1817.0" y="1320.0"/>
      <point x="1817.0" y="1375.0" type="curve" smooth="yes"/>
      <point x="1817.0" y="1438.0"/>
      <point x="1759.0" y="1484.0"/>
      <point x="1589.0" y="1484.0" type="curve" smooth="yes"/>
      <point x="1293.0" y="1484.0"/>
      <point x="1097.0" y="1364.0"/>
    </contour>
    <contour>
      <point x="148.0" y="967.0" type="line"/>
      <point x="1674.0" y="967.0" type="line"/>
      <point x="1656.0" y="1005.0" type="line"/>
      <point x="1307.0" y="58.0" type="line" smooth="yes"/>
      <point x="1286.0" y="0.0"/>
      <point x="1303.0" y="-20.0"/>
      <point x="1353.0" y="-20.0" type="curve" smooth="yes"/>
      <point x="1418.0" y="-20.0"/>
      <point x="1558.0" y="5.0"/>
      <point x="1749.0" y="124.0" type="curve"/>
      <point x="1734.0" y="156.0" type="line"/>
      <point x="1539.0" y="55.0"/>
      <point x="1422.0" y="42.0"/>
      <point x="1339.0" y="50.0" type="curve"/>
      <point x="1363.0" y="11.0" type="line"/>
      <point x="1745.0" y="1044.0" type="line"/>
      <point x="1730.0" y="1044.0" type="line"/>
      <point x="1666.0" y="1029.0"/>
      <point x="1602.0" y="1024.0"/>
      <point x="1536.0" y="1024.0" type="curve" smooth="yes"/>
      <point x="148.0" y="1024.0" type="line"/>
    </contour>
  </outline>
</glyph>
<glyph name="f_f_l" format="2">
  <advance width="1830"/>
  <unicode hex="FB04"/>
  <outline>
    <contour>
      <point x="148.0" y="967.0" type="line"/>
      <point x="1426.0" y="967.0" type="line"/>
      <point x="1426.0" y="1024.0" type="line"/>
      <point x="148.0" y="1024.0" type="line"/>
    </contour>
    <contour>
      <point x="130.0" y="-301.0" type="line"/>
      <point x="189.0" y="-397.0"/>
      <point x="283" y="-445"/>
      <point x="411.0" y="-445.0" type="curve" smooth="yes"/>
      <point x="631" y="-445.0"/>
      <point x="804" y="-323"/>
      <point x="879.0" y="25.0" type="curve" smooth="yes"/>
      <point x="1097.0" y="1032.0" type="line" smooth="yes"/>
      <point x="1159.0" y="1317.0"/>
      <point x="1306.0" y="1441.0"/>
      <point x="1515.0" y="1441.0" type="curve" smooth="yes"/>
      <point x="1604.0" y="1441.0"/>
      <point x="1664.0" y="1412.0"/>
      <point x="1695.0" y="1359.0" type="curve"/>
      <point x="1318.0" y="67.0" type="line" smooth="yes"/>
      <point x="1299.0" y="2.0"/>
      <point x="1314.0" y="-20.0"/>
      <point x="1368.0" y="-20.0" type="curve" smooth="yes"/>
      <point x="1433.0" y="-20.0"/>
      <point x="1573.0" y="5.0"/>
      <point x="1764.0" y="124.0" type="curve"/>
      <point x="1749.0" y="156.0" type="line"/>
      <point x="1576.0" y="66.0"/>
      <point x="1464.0" y="46.0"/>
      <point x="1383.0" y="48.0" type="curve"/>
      <point x="1803.0" y="1484.0" type="line"/>
      <point x="1770.0" y="1484.0" type="line"/>
      <point x="1688.0" y="1440.0" type="line"/>
      <point x="1740.0" y="1438.0" type="line"/>
      <point x="1682.0" y="1468.0"/>
      <point x="1632.0" y="1484.0"/>
      <point x="1541.0" y="1484.0" type="curve" smooth="yes"/>
      <point x="1293.0" y="1484.0"/>
      <point x="1097.0" y="1364.0"/>
      <point x="1013.0" y="972.0" type="curve" smooth="yes"/>
      <point x="806.0" y="9.0" type="line" smooth="yes"/>
      <point x="744" y="-280"/>
      <point x="599.0" y="-399.0"/>
      <point x="430.0" y="-399.0" type="curve" smooth="yes"/>
      <point x="310" y="-399"/>
      <point x="229.0" y="-322.0"/>
      <point x="207.0" y="-222.0" type="curve"/>
    </contour>
    <contour>
      <point x="313.0" y="25.0" type="curve" smooth="yes"/>
      <point x="530.0" y="1026.0" type="line" smooth="yes"/>
      <point x="595.0" y="1328.0"/>
      <point x="736.0" y="1421.0"/>
      <point x="937.0" y="1421.0" type="curve" smooth="yes"/>
      <point x="1069.0" y="1421.0"/>
      <point x="1133.0" y="1369.0"/>
      <point x="1165.0" y="1288.0" type="curve"/>
      <point x="1234.0" y="1358.0" type="line"/>
      <point x="1190.0" y="1423"/>
      <point x="1106.0" y="1464.0"/>
      <point x="961.0" y="1464.0" type="curve" smooth="yes"/>
      <point x="711" y="1464"/>
      <point x="526" y="1341"/>
      <point x="456.0" y="1014.0" type="curve" smooth="yes"/>
      <point x="240.0" y="9.0" type="line" smooth="yes"/>
      <point x="177" y="-282"/>
      <point x="58.0" y="-419.0"/>
      <point x="-120.0" y="-419.0" type="curve" smooth="yes"/>
      <point x="-158.0" y="-419.0"/>
      <point x="-180.0" y="-416.0"/>
      <point x="-191.0" y="-397.0" type="curve" smooth="yes"/>
      <point x="-202.0" y="-378.0"/>
      <point x="-201.0" y="-347.0"/>
      <point x="-194.0" y="-291.0" type="curve"/>
      <point x="-291.0" y="-288.0"/>
      <point x="-313.0" y="-308.0"/>
      <point x="-313.0" y="-356.0" type="curve" smooth="yes"/>
      <point x="-313.0" y="-420.0"/>
      <point x="-261.0" y="-465.0"/>
      <point x="-138.0" y="-465.0" type="curve" smooth="yes"/>
      <point x="75.0" y="-465.0"/>
      <point x="235" y="-336"/>
    </contour>
  </outline>
</glyph>
<glyph name="four.lf" format="2">
  <advance width="1164"/>
  <outline>
    <contour>
      <point x="974.0" y="1366.0" type="line"/>
      <point x="576.0" y="63.0" type="line"/>
      <point x="342.0" y="47.0" type="line"/>
      <point x="327.0" y="0.0" type="line"/>
      <point x="850.0" y="0.0" type="line"/>
      <point x="864.0" y="47.0" type="line"/>
      <point x="650.0" y="63.0" type="line"/>
      <point x="1069.0" y="1434.0" type="line"/>
      <point x="985.0" y="1434.0" type="line"/>
      <point x="66.0" y="550.0" type="line"/>
      <point x="43.0" y="476.0" type="line"/>
      <point x="1047.0" y="476.0" type="line"/>
      <point x="1133.0" y="571.0" type="line"/>
      <point x="987.0" y="540.0" type="line"/>
      <point x="80.0" y="540.0" type="line"/>
      <point x="80.0" y="493.0" type="line"/>
      <point x="979.0" y="1359.0" type="line"/>
    </contour>
  </outline>
</glyph>
<glyph name="hookabovecomb.case" format="2">
  <anchor x="276" y="1414.0" name="_UCtop"/>
  <anchor x="415" y="1870.0" name="UCtop"/>
  <outline>
    <contour>
      <point x="208.0" y="1816.0" type="line"/>
      <point x="408.0" y="1810.0"/>
      <point x="452.0" y="1781.0"/>
      <point x="452.0" y="1722.0" type="curve" smooth="yes"/>
      <point x="452.0" y="1670.0"/>
      <point x="424.0" y="1622.0"/>
      <point x="235.0" y="1576.0" type="curve"/>
      <point x="244.0" y="1536.0" type="line"/>
      <point x="471.0" y="1592.0"/>
      <point x="518.0" y="1650.0"/>
      <point x="518.0" y="1746.0" type="curve" smooth="yes"/>
      <point x="518.0" y="1822.0"/>
      <point x="463.0" y="1886.0"/>
      <point x="226.0" y="1896.0" type="curve"/>
    </contour>
  </outline>
</glyph>
<glyph name="lira.lf" format="2">
  <advance width="1260"/>
  <outline>
    <contour>
      <point x="157.0" y="68.0" type="line"/>
      <point x="158.0" y="40.0" type="line"/>
      <point x="452.0" y="267.0"/>
      <point x="541.0" y="423.0"/>
      <point x="541.0" y="547.0" type="curve" smooth="yes"/>
      <point x="541.0" y="687.0"/>
      <point x="449.0" y="807.0"/>
      <point x="449.0" y="991.0" type="curve" smooth="yes"/>
      <point x="449.0" y="1208.0"/>
      <point x="571.0" y="1369.0"/>
      <point x="852.0" y="1369.0" type="curve" smooth="yes"/>
      <point x="1080.0" y="1369.0"/>
      <point x="1168.0" y="1236.0"/>
      <point x="1173.0" y="949.0" type="curve"/>
      <point x="1227.0" y="949.0" type="line"/>
      <point x="1229.0" y="1281.0"/>
      <point x="1112.0" y="1434.0"/>
      <point x="856.0" y="1434.0" type="curve" smooth="yes"/>
      <point x="520.0" y="1434.0"/>
      <point x="380.0" y="1225.0"/>
      <point x="380.0" y="984.0" type="curve" smooth="yes"/>
      <point x="380.0" y="783.0"/>
      <point x="477.0" y="681.0"/>
      <point x="477.0" y="548.0" type="curve" smooth="yes"/>
      <point x="477.0" y="427.0"/>
      <point x="405.0" y="301.0"/>
      <point x="116.0" y="63.0" type="curve"/>
      <point x="97.0" y="0.0" type="line"/>
      <point x="864.0" y="0.0" type="line"/>
      <point x="843.0" y="-70.0" type="line"/>
      <point x="906.0" y="-70.0" type="line"/>
      <point x="1120.0" y="370.0" type="line"/>
      <point x="1065.0" y="370.0" type="line"/>
      <point x="883.0" y="64.0" type="line"/>
      <point x="916.0" y="68.0" type="line"/>
    </contour>
    <contour>
      <point x="895.0" y="580.0" type="line"/>
      <point x="152.0" y="580.0" type="line"/>
      <point x="131.0" y="514.0" type="line"/>
      <point x="875.0" y="514.0" type="line"/>
    </contour>
    <contour>
      <point x="973.0" y="900.0" type="line"/>
      <point x="229.0" y="900.0" type="line"/>
      <point x="209.0" y="834.0" type="line"/>
      <point x="953.0" y="834.0" type="line"/>
    </contour>
  </outline>
</glyph>
<glyph name="peseta.lf" format="2">
  <advance width="1685"/>
  <outline>
    <contour>
      <point x="870.0" y="162.0" type="curve" smooth="yes"/>
      <point x="1145.0" y="1062.0" type="line"/>
      <point x="1117.0" y="1062.0" type="line"/>
      <point x="1041.0" y="912.0"/>
      <point x="1028.0" y="905.0"/>
      <point x="957.0" y="892.0" type="curve"/>
      <point x="947.0" y="858.0" type="line"/>
      <point x="1013.0" y="858.0" type="line"/>
      <point x="806.0" y="183.0" type="line" smooth="yes"/>
      <point x="761.0" y="34.0"/>
      <point x="815.0" y="-7.0"/>
      <point x="898.0" y="-7.0" type="curve" smooth="yes"/>
      <point x="948.0" y="-7.0"/>
      <point x="986.0" y="4.0"/>
      <point x="1024.0" y="25.0" type="curve"/>
      <point x="1041.0" y="80.0" type="line"/>
      <point x="993.0" y="59.0"/>
      <point x="960.0" y="52.0"/>
      <point x="928.0" y="52.0" type="curve" smooth="yes"/>
      <point x="863.0" y="52.0"/>
      <point x="847.0" y="87.0"/>
    </contour>
    <contour>
      <point x="1057.0" y="858.0" type="line"/>
      <point x="1260.0" y="858.0" type="line"/>
      <point x="1280.0" y="908.0" type="line"/>
      <point x="1043.0" y="908.0" type="line"/>
    </contour>
    <contour>
      <point x="583.0" y="1351.0" type="line"/>
      <point x="190.0" y="63.0" type="line"/>
      <point x="29.0" y="47.0" type="line"/>
      <point x="15.0" y="0.0" type="line"/>
      <point x="394.0" y="0.0" type="line"/>
      <point x="408.0" y="47.0" type="line"/>
      <point x="259.0" y="63.0" type="line"/>
      <point x="672.0" y="1414.0" type="line"/>
      <point x="447.0" y="1414.0" type="line"/>
      <point x="433.0" y="1367.0" type="line"/>
    </contour>
    <contour>
      <point x="1534.0" y="955.0" type="curve" smooth="yes"/>
      <point x="1371.0" y="955.0"/>
      <point x="1282.0" y="842.0"/>
      <point x="1282.0" y="643.0" type="curve" smooth="yes"/>
      <point x="1282.0" y="473.0"/>
      <point x="1406.0" y="458.0"/>
      <point x="1406.0" y="295.0" type="curve" smooth="yes"/>
      <point x="1406.0" y="112.0"/>
      <point x="1329.0" y="36.0"/>
      <point x="1228.0" y="36.0" type="curve" smooth="yes"/>
      <point x="1200.0" y="36.0"/>
      <point x="1174.0" y="39.0"/>
      <point x="1157.0" y="47.0" type="curve"/>
      <point x="1180.0" y="-1.0" type="line"/>
      <point x="1174.0" y="257.0" type="line"/>
      <point x="1140.0" y="257.0" type="line"/>
      <point x="1110.0" y="2.0" type="line"/>
      <point x="1148.0" y="-9.0"/>
      <point x="1184.0" y="-12.0"/>
      <point x="1231.0" y="-12.0" type="curve" smooth="yes"/>
      <point x="1384.0" y="-12.0"/>
      <point x="1473.0" y="108.0"/>
      <point x="1473.0" y="306.0" type="curve" smooth="yes"/>
      <point x="1473.0" y="495.0"/>
      <point x="1347.0" y="516.0"/>
      <point x="1347.0" y="673.0" type="curve" smooth="yes"/>
      <point x="1347.0" y="811.0"/>
      <point x="1402.0" y="899.0"/>
      <point x="1528.0" y="899.0" type="curve" smooth="yes"/>
      <point x="1548.0" y="899.0"/>
      <point x="1567.0" y="896.0"/>
      <point x="1582.0" y="890.0" type="curve"/>
      <point x="1562.0" y="940.0" type="line"/>
      <point x="1538.0" y="699.0" type="line"/>
      <point x="1574.0" y="699.0" type="line"/>
      <point x="1625.0" y="943.0" type="line"/>
      <point x="1600.0" y="950.0"/>
      <point x="1566.0" y="955.0"/>
    </contour>
    <contour>
      <point x="585.0" y="720.0" type="curve" smooth="yes"/>
      <point x="422.0" y="720.0" type="line"/>
      <point x="403.0" y="659.0" type="line"/>
      <point x="575.0" y="659.0" type="line" smooth="yes"/>
      <point x="843.0" y="659.0"/>
      <point x="990.0" y="926.0"/>
      <point x="990.0" y="1188.0" type="curve" smooth="yes"/>
      <point x="990.0" y="1337.0"/>
      <point x="913.0" y="1414.0"/>
      <point x="726.0" y="1414.0" type="curve" smooth="yes"/>
      <point x="630.0" y="1414.0" type="line"/>
      <point x="610.0" y="1352.0" type="line"/>
      <point x="711.0" y="1352.0" type="line" smooth="yes"/>
      <point x="868.0" y="1352.0"/>
      <point x="919.0" y="1294.0"/>
      <point x="919.0" y="1182.0" type="curve" smooth="yes"/>
      <point x="919.0" y="948.0"/>
      <point x="795.0" y="720.0"/>
    </contour>
  </outline>
</glyph>
<glyph name="seven.lf" format="2">
  <advance width="1069"/>
  <outline>
    <contour>
      <point x="372.0" y="1346.0" type="line"/>
      <point x="1196.0" y="1346.0" type="line"/>
      <point x="1189.0" y="1392.0" type="line"/>
      <point x="255.0" y="0.0" type="line"/>
      <point x="333.0" y="0.0" type="line"/>
      <point x="1227.0" y="1360.0" type="line"/>
      <point x="1243.0" y="1414.0" type="line"/>
      <point x="420.0" y="1414.0" type="line"/>
      <point x="409.0" y="1484.0" type="line"/>
      <point x="363.0" y="1484.0" type="line"/>
      <point x="236.0" y="1068.0" type="line"/>
      <point x="289.0" y="1068.0" type="line"/>
      <point x="426.0" y="1402.0" type="line"/>
    </contour>
  </outline>
</glyph>
<glyph name="tildecomb.case" format="2">
  <anchor x="276" y="1414.0" name="_UCtop"/>
  <anchor x="391" y="1793.0" name="UCtop"/>
  <outline>
    <contour>
      <point x="677.0" y="1846.0" type="curve"/>
      <point x="624.0" y="1846.0" type="line"/>
      <point x="538.0" y="1657.0"/>
      <point x="509.0" y="1631.0"/>
      <point x="461.0" y="1631.0" type="curve" smooth="yes"/>
      <point x="382.0" y="1631.0"/>
      <point x="377.0" y="1856.0"/>
      <point x="263.0" y="1856.0" type="curve" smooth="yes"/>
      <point x="196.0" y="1856.0"/>
      <point x="133.0" y="1808.0"/>
      <point x="32.0" y="1568.0" type="curve"/>
      <point x="85.0" y="1568.0" type="line"/>
      <point x="171.0" y="1757.0"/>
      <point x="200.0" y="1783.0"/>
      <point x="248.0" y="1783.0" type="curve" smooth="yes"/>
      <point x="327.0" y="1783.0"/>
      <point x="332.0" y="1558.0"/>
      <point x="446.0" y="1558.0" type="curve" smooth="yes"/>
      <point x="513.0" y="1558.0"/>
      <point x="576.0" y="1606.0"/>
    </contour>
  </outline>
</glyph>
<glyph name="uni0302_gravecomb" format="2">
  <anchor x="157" y="1024.0" name="_top"/>
  <outline>
    <contour>
      <point x="30.0" y="1335.0" type="line"/>
      <point x="-78.0" y="1602.0" type="line"/>
      <point x="-172.0" y="1602.0" type="line"/>
      <point x="-172.0" y="1586.0" type="line"/>
      <point x="-9.0" y="1335.0" type="line"/>
    </contour>
    <contour>
      <point x="-91.0" y="1138.0" type="line"/>
      <point x="-21.0" y="1138.0" type="line"/>
      <point x="296.0" y="1409.0" type="line"/>
      <point x="269.0" y="1409.0" type="line"/>
      <point x="420.0" y="1138.0" type="line"/>
      <point x="474.0" y="1138.0" type="line"/>
      <point x="326.0" y="1464.0" type="line"/>
      <point x="255.0" y="1464.0" type="line"/>
    </contour>
  </outline>
</glyph>
<glyph name="uni0302_tildecomb" format="2">
  <anchor x="157" y="1024.0" name="_top"/>
  <outline>
    <contour>
      <point x="256.0" y="1290.0" type="line"/>
      <point x="236.0" y="1290.0" type="line"/>
      <point x="380.0" y="1097.0" type="line"/>
      <point x="433.0" y="1097.0" type="line"/>
      <point x="294.0" y="1342.0" type="line"/>
      <point x="215.0" y="1342.0" type="line"/>
      <point x="-75.0" y="1097.0" type="line"/>
      <point x="-4.0" y="1097.0" type="line"/>
    </contour>
    <contour>
      <point x="570.0" y="1598.0" type="curve"/>
      <point x="523.0" y="1598.0" type="line"/>
      <point x="467.0" y="1480.0"/>
      <point x="442.0" y="1457.0"/>
      <point x="401.0" y="1457.0" type="curve" smooth="yes"/>
      <point x="333.0" y="1457.0"/>
      <point x="281.0" y="1603.0"/>
      <point x="195.0" y="1603.0" type="curve" smooth="yes"/>
      <point x="136.0" y="1603.0"/>
      <point x="91.0" y="1566.0"/>
      <point x="10.0" y="1390.0" type="curve"/>
      <point x="57.0" y="1390.0" type="line"/>
      <point x="113.0" y="1508.0"/>
      <point x="138.0" y="1531.0"/>
      <point x="179.0" y="1531.0" type="curve" smooth="yes"/>
      <point x="247.0" y="1531.0"/>
      <point x="299.0" y="1385.0"/>
      <point x="385.0" y="1385.0" type="curve" smooth="yes"/>
      <point x="444.0" y="1385.0"/>
      <point x="489.0" y="1422.0"/>
    </contour>
  </outline>
</glyph>
<glyph name="uni0304.case" format="2">
  <anchor x="276" y="1414.0" name="_UCtop"/>
  <anchor x="415" y="1870.0" name="UCtop"/>
  <outline>
    <contour>
      <point x="100.0" y="1674.0" type="line"/>
      <point x="611.0" y="1674.0" type="line"/>
      <point x="631.0" y="1741.0" type="line"/>
      <point x="120.0" y="1741.0" type="line"/>
    </contour>
  </outline>
</glyph>
<glyph name="uni0306_tildecomb.case" format="2">
  <anchor x="276" y="1414.0" name="_UCtop"/>
  <outline>
    <contour>
      <point x="317.0" y="1569.0" type="curve" smooth="yes"/>
      <point x="192.0" y="1569.0"/>
      <point x="162.0" y="1618.0"/>
      <point x="167.0" y="1742.0" type="curve"/>
      <point x="129.0" y="1742.0" type="line"/>
      <point x="109.0" y="1540.0"/>
      <point x="161.0" y="1493.0"/>
      <point x="302.0" y="1493.0" type="curve" smooth="yes"/>
      <point x="442.0" y="1493.0"/>
      <point x="519.0" y="1540.0"/>
      <point x="623.0" y="1742.0" type="curve"/>
      <point x="573.0" y="1742.0" type="line"/>
      <point x="506.0" y="1624.0"/>
      <point x="440.0" y="1569.0"/>
    </contour>
    <contour>
      <point x="694.0" y="2004.0" type="curve"/>
      <point x="647.0" y="2004.0" type="line"/>
      <point x="591.0" y="1886.0"/>
      <point x="566.0" y="1863.0"/>
      <point x="525.0" y="1863.0" type="curve" smooth="yes"/>
      <point x="457.0" y="1863.0"/>
      <point x="405.0" y="2009.0"/>
      <point x="319.0" y="2009.0" type="curve" smooth="yes"/>
      <point x="260.0" y="2009.0"/>
      <point x="215.0" y="1972.0"/>
      <point x="134.0" y="1796.0" type="curve"/>
      <point x="181.0" y="1796.0" type="line"/>
      <point x="237.0" y="1914.0"/>
      <point x="262.0" y="1937.0"/>
      <point x="303.0" y="1937.0" type="curve" smooth="yes"/>
      <point x="371.0" y="1937.0"/>
      <point x="423.0" y="1791.0"/>
      <point x="509.0" y="1791.0" type="curve" smooth="yes"/>
      <point x="568.0" y="1791.0"/>
      <point x="613.0" y="1828.0"/>
    </contour>
  </outline>
</glyph>
<glyph name="uni0312.case" format="2">
  <anchor x="276" y="1414.0" name="_UCtop"/>
  <anchor x="415" y="1870.0" name="UCtop"/>
  <outline>
    <contour>
      <point x="396.0" y="1533.0"/>
      <point x="433.0" y="1580.0"/>
      <point x="433.0" y="1617.0" type="curve" smooth="yes"/>
      <point x="433.0" y="1646.0"/>
      <point x="345.0" y="1648.0"/>
      <point x="345.0" y="1697.0" type="curve" smooth="yes"/>
      <point x="345.0" y="1730.0"/>
      <point x="375.0" y="1798.0"/>
      <point x="544.0" y="1841.0" type="curve"/>
      <point x="544.0" y="1885.0" type="line"/>
      <point x="302.0" y="1821.0"/>
      <point x="256.0" y="1707.0"/>
      <point x="256.0" y="1617.0" type="curve" smooth="yes"/>
      <point x="256.0" y="1556.0"/>
      <point x="287.0" y="1533.0"/>
      <point x="331.0" y="1533.0" type="curve" smooth="yes"/>
    </contour>
  </outline>
</glyph>
<glyph name="uni20A6.lf" format="2">
  <advance width="1391"/>
  <outline>
    <contour>
      <point x="1278.0" y="580.0" type="line"/>
      <point x="162.0" y="580.0" type="line"/>
      <point x="141.0" y="514.0" type="line"/>
      <point x="1258.0" y="514.0" type="line"/>
    </contour>
    <contour>
      <point x="1376.0" y="900.0" type="line"/>
      <point x="259.0" y="900.0" type="line"/>
      <point x="239.0" y="834.0" type="line"/>
      <point x="1355.0" y="834.0" type="line"/>
    </contour>
    <contour>
      <point x="1338.0" y="1351.0" type="line"/>
      <point x="1499.0" y="1367.0" type="line"/>
      <point x="1514.0" y="1414.0" type="line"/>
      <point x="1139.0" y="1414.0" type="line"/>
      <point x="1124.0" y="1367.0" type="line"/>
      <point x="1273.0" y="1351.0" type="line"/>
      <point x="877.0" y="55.0" type="line"/>
      <point x="893.0" y="55.0" type="line"/>
      <point x="706.0" y="1414.0" type="line"/>
      <point x="446.0" y="1414.0" type="line"/>
      <point x="431.0" y="1367.0" type="line"/>
      <point x="582.0" y="1351.0" type="line"/>
      <point x="189.0" y="63.0" type="line"/>
      <point x="28.0" y="47.0" type="line"/>
      <point x="14.0" y="0.0" type="line"/>
      <point x="389.0" y="0.0" type="line"/>
      <point x="404.0" y="47.0" type="line"/>
      <point x="254.0" y="63.0" type="line"/>
      <point x="648.0" y="1352.0" type="line"/>
      <point x="640.0" y="1346.0" type="line"/>
      <point x="832.0" y="-20.0" type="line"/>
      <point x="920.0" y="-20.0" type="line"/>
    </contour>
  </outline>
</glyph>
<glyph name="uni20AD.lf" format="2">
  <advance width="1407"/>
  <outline>
    <contour>
      <point x="745.0" y="724.0" type="line"/>
      <point x="727.0" y="698.0" type="line"/>
      <point x="1330.0" y="1351.0" type="line"/>
      <point x="1516.0" y="1367.0" type="line"/>
      <point x="1530.0" y="1414.0" type="line"/>
      <point x="1089.0" y="1414.0" type="line"/>
      <point x="1075.0" y="1367.0" type="line"/>
      <point x="1252.0" y="1351.0" type="line"/>
      <point x="678.0" y="719.0" type="line"/>
      <point x="672.0" y="719.0" type="line"/>
      <point x="957.0" y="0.0" type="line"/>
      <point x="1187.0" y="0.0" type="line"/>
      <point x="1201.0" y="47.0" type="line"/>
      <point x="1009.0" y="63.0" type="line"/>
    </contour>
    <contour>
      <point x="1089.0" y="745.0" type="line"/>
      <point x="215.0" y="745.0" type="line"/>
      <point x="195.0" y="679.0" type="line"/>
      <point x="1068.0" y="679.0" type="line"/>
    </contour>
    <contour>
      <point x="693.0" y="1351.0" type="line"/>
      <point x="917.0" y="1367.0" type="line"/>
      <point x="932.0" y="1414.0" type="line"/>
      <point x="419.0" y="1414.0" type="line"/>
      <point x="404.0" y="1367.0" type="line"/>
      <point x="619.0" y="1351.0" type="line"/>
      <point x="226.0" y="63.0" type="line"/>
      <point x="2.0" y="47.0" type="line"/>
      <point x="-13.0" y="0.0" type="line"/>
      <point x="500.0" y="0.0" type="line"/>
      <point x="515.0" y="47.0" type="line"/>
      <point x="300.0" y="63.0" type="line"/>
    </contour>
  </outline>
</glyph>
<glyph name="uni20B1.lf.1" format="2">
  <advance width="1402"/>
  <outline>
    <contour>
      <point x="628.0" y="1351.0" type="line"/>
      <point x="235.0" y="63.0" type="line"/>
      <point x="11.0" y="47.0" type="line"/>
      <point x="-4.0" y="0.0" type="line"/>
      <point x="509.0" y="0.0" type="line"/>
      <point x="524.0" y="47.0" type="line"/>
      <point x="309.0" y="63.0" type="line"/>
      <point x="722.0" y="1414.0" type="line"/>
      <point x="428.0" y="1414.0" type="line"/>
      <point x="413.0" y="1367.0" type="line"/>
    </contour>
    <contour>
      <point x="690.0" y="561.0" type="curve" smooth="yes"/>
      <point x="424.0" y="561.0" type="line"/>
      <point x="414.0" y="497.0" type="line"/>
      <point x="676.0" y="497.0" type="line" smooth="yes"/>
      <point x="1072.0" y="497.0"/>
      <point x="1259.0" y="755.0"/>
      <point x="1259.0" y="1119.0" type="curve" smooth="yes"/>
      <point x="1259.0" y="1306.0"/>
      <point x="1156.0" y="1414.0"/>
      <point x="852.0" y="1414.0" type="curve" smooth="yes"/>
      <point x="683.0" y="1414.0" type="line"/>
      <point x="653.0" y="1350.0" type="line"/>
      <point x="861.0" y="1350.0" type="line" smooth="yes"/>
      <point x="1105.0" y="1350.0"/>
      <point x="1183.0" y="1257.0"/>
      <point x="1183.0" y="1103.0" type="curve" smooth="yes"/>
      <point x="1183.0" y="787.0"/>
      <point x="1019.0" y="561.0"/>
    </contour>
    <contour>
      <point x="610.0" y="1145.0" type="line"/>
      <point x="356.0" y="1145.0" type="line"/>
      <point x="335.0" y="1079.0" type="line"/>
      <point x="589.0" y="1079.0" type="line"/>
    </contour>
    <contour>
      <point x="508.0" y="825.0" type="line"/>
      <point x="265.0" y="825.0" type="line"/>
      <point x="245.0" y="759.0" type="line"/>
      <point x="487.0" y="759.0" type="line"/>
    </contour>
    <contour>
      <point x="1212.0" y="1079.0" type="line"/>
      <point x="1446.0" y="1079.0" type="line"/>
      <point x="1466.0" y="1145.0" type="line"/>
      <point x="1212.0" y="1145.0" type="line"/>
    </contour>
    <contour>
      <point x="1161.0" y="759.0" type="line"/>
      <point x="1355.0" y="759.0" type="line"/>
      <point x="1375.0" y="825.0" type="line"/>
      <point x="1161.0" y="825.0" type="line"/>
    </contour>
  </outline>
</glyph>
<glyph name="uni20B9.lf" format="2">
  <advance width="1250"/>
  <outline>
    <contour>
      <point x="1285.0" y="1094.0" type="line"/>
      <point x="302.0" y="1094.0" type="line"/>
      <point x="282.0" y="1028.0" type="line"/>
      <point x="1265.0" y="1028.0" type="line"/>
    </contour>
    <contour>
      <point x="1054.0" y="1132.0" type="curve" smooth="yes"/>
      <point x="1054.0" y="1251.0"/>
      <point x="1001.0" y="1330.0"/>
      <point x="863.0" y="1358.0" type="curve"/>
      <point x="863.0" y="1348.0" type="line"/>
      <point x="1362.0" y="1348.0" type="line"/>
      <point x="1383.0" y="1414.0" type="line"/>
      <point x="400.0" y="1414.0" type="line"/>
      <point x="380.0" y="1348.0" type="line"/>
      <point x="619.0" y="1348.0" type="line" smooth="yes"/>
      <point x="907.0" y="1348.0"/>
      <point x="981.0" y="1279.0"/>
      <point x="981.0" y="1145.0" type="curve" smooth="yes"/>
      <point x="981.0" y="931.0"/>
      <point x="865.0" y="739.0"/>
      <point x="563.0" y="739.0" type="curve" smooth="yes"/>
      <point x="194.0" y="739.0" type="line"/>
      <point x="174.0" y="675.0" type="line"/>
      <point x="585.0" y="675.0" type="line" smooth="yes"/>
      <point x="707.0" y="675.0"/>
      <point x="735.0" y="645.0"/>
      <point x="750.0" y="498.0" type="curve" smooth="yes"/>
      <point x="783.0" y="171.0" type="line" smooth="yes"/>
      <point x="799.0" y="11.0"/>
      <point x="843.0" y="-13.0"/>
      <point x="1003.0" y="0.0" type="curve"/>
      <point x="1018.0" y="58.0" type="line"/>
      <point x="892.0" y="48.0"/>
      <point x="864.0" y="64.0"/>
      <point x="853.0" y="177.0" type="curve" smooth="yes"/>
      <point x="819.0" y="517.0" type="line" smooth="yes"/>
      <point x="807.0" y="636.0"/>
      <point x="777.0" y="695.0"/>
      <point x="665.0" y="709.0" type="curve"/>
      <point x="665.0" y="703.0" type="line"/>
      <point x="915.0" y="740.0"/>
      <point x="1054.0" y="915.0"/>
    </contour>
  </outline>
</glyph>
